<svg xmlns="http://www.w3.org/2000/svg" width="40" height="40" viewBox="0 0 40 40">
  <defs>
    <linearGradient id="a" x1="23.289%" x2="76.333%" y1="23.398%" y2="76.687%">
      <stop stop-color="#738EF5" offset="0%"/>
      <stop stop-color="#B3AEFF" offset="100%"/>
    </linearGradient>
  </defs>
  <g fill="none" fill-rule="evenodd">
    <polygon points="22.696 19.231 28.957 19.231 28.957 36.565 22.696 36.565"/>
    <path fill="#202225" d="M22.6956913,19.230513 L22.6956913,33.4348609 C22.6956913,35.1636435 24.0973435,36.5652957 25.8261261,36.5652957 C27.5549087,36.5652957 28.9565609,35.1636435 28.9565609,33.4348609 L28.9565609,19.230513 L22.6956913,19.230513 Z"/>
    <path d="M36,1.73913043 C34.2712174,1.73913043 32.8695652,3.14078261 32.8695652,4.86956522 L32.8695652,20.326087 C32.8695652,20.758087 32.5189565,21.1086957 32.0869565,21.1086957 L17.2173913,21.1086957 C16.7853913,21.1086957 16.4347826,20.758087 16.4347826,20.326087 L16.4347826,4.86956522 C16.4347826,3.14078261 15.0331304,1.73913043 13.3043478,1.73913043 C11.5751739,1.73913043 10.173913,3.14078261 10.173913,4.86956522 L10.173913,24.2391304 C10.173913,25.967913 11.5751739,27.3695652 13.3043478,27.3695652 L36,27.3695652 C37.7287826,27.3695652 39.1304348,25.967913 39.1304348,24.2391304 L39.1304348,4.86956522 C39.1304348,3.14078261 37.7287826,1.73913043 36,1.73913043 Z"/>
    <path fill="url(#a)" d="M36,1.73913043 C34.2712174,1.73913043 32.8695652,3.14078261 32.8695652,4.86956522 L32.8695652,20.326087 C32.8695652,20.758087 32.5189565,21.1086957 32.0869565,21.1086957 L17.2173913,21.1086957 C16.7853913,21.1086957 16.4347826,20.758087 16.4347826,20.326087 L16.4347826,4.86956522 C16.4347826,3.14078261 15.0331304,1.73913043 13.3043478,1.73913043 C11.5751739,1.73913043 10.173913,3.14078261 10.173913,4.86956522 L10.173913,24.2391304 C10.173913,25.967913 11.5751739,27.3695652 13.3043478,27.3695652 L36,27.3695652 C37.7287826,27.3695652 39.1304348,25.967913 39.1304348,24.2391304 L39.1304348,4.86956522 C39.1304348,3.14078261 37.7287826,1.73913043 36,1.73913043 Z"/>
    <path fill="#202225" d="M22.6956913,17.9782609 L22.6956913,19.8240435 L28.9565609,19.8240435 L28.9565609,14.0652174 C28.9565609,12.3364348 27.5549087,10.9347826 25.8261261,10.9347826 L3.13047391,10.9347826 C1.4016913,10.9347826 3.91304348e-05,12.3364348 3.91304348e-05,14.0652174 L3.91304348e-05,33.4347826 C3.91304348e-05,35.1635652 1.4016913,36.5652174 3.13047391,36.5652174 C4.85925652,36.5652174 6.2609087,35.1635652 6.2609087,33.4347826 L6.2609087,17.9782609 C6.2609087,17.5462609 6.61151739,17.1956522 7.04351739,17.1956522 L21.9130826,17.1956522 C22.3450826,17.1956522 22.6956913,17.5462609 22.6956913,17.9782609"/>
  </g>
</svg>
