<svg xmlns="http://www.w3.org/2000/svg" width="545" height="545" viewBox="0 0 545 545">
  <g fill="none" fill-rule="evenodd">
    <path fill="#2A2C7D" d="M47.2711214,-28.1880395 L48.0244039,-27.2318252 C66.7864258,-3.41537517 101.303097,0.682048354 125.119547,-18.0799736 C128.837599,-21.0089644 132.161245,-24.4064972 135.007792,-28.1880395 L135.007792,-28.1880395 C152.869827,-51.9171525 186.586114,-56.6733591 210.315227,-38.8113241 C214.305486,-35.8076665 217.85787,-32.2627921 220.869966,-28.2788999 L222.553445,-26.0522781 C238.917005,-4.40932318 269.727372,-0.129527461 291.370327,-16.4930868 C295.684176,-19.7546531 299.429896,-23.7061145 302.456356,-28.1880395 L302.456356,-28.1880395 C317.866747,-51.0094935 348.859782,-57.017347 371.681236,-41.6069558 C376.035387,-38.6667759 379.897479,-35.0568925 383.124572,-30.9109106 L389.645803,-22.5328116 C404.163498,-3.88131941 431.052437,-0.530214701 449.703929,-15.0479097 C454.294106,-18.6207488 458.107757,-23.0918229 460.911945,-28.1880395 L460.911945,-28.1880395 C472.520865,-49.2856124 499.034716,-56.9776855 520.132289,-45.3687656 C525.103313,-42.6334643 529.49268,-38.9542282 533.054222,-34.5373997 L542.205631,-23.1883239 C558.497029,-2.98462658 588.082149,0.186919001 608.285846,-16.1044786 C612.488481,-19.4933033 616.075745,-23.5809614 618.89019,-28.1880395 L618.89019,-28.1880395 C632.230523,-50.0253661 660.74765,-56.9135408 682.584977,-43.5732083 C687.303655,-40.6905874 691.468252,-36.9866069 694.88175,-32.6364962 L710.523629,-12.702714 C723.180188,3.4266179 746.515762,6.24185734 762.645094,-6.41470073 C765.998296,-9.04593128 768.873311,-12.2349844 771.144093,-15.8420448 C771.144093,-15.8420448 771.144093,-15.8420448 771.144093,-15.8420448 C758.602038,0.80182463 649.272308,145.887276 443.154905,419.414308 C278.257913,295.155512 133.172462,185.825783 7.89855218,91.4251205 C22.3169046,72.2913207 25.490879,36.7531214 17.4204756,-15.1894773 L17.4204229,-15.1894691 C15.9933856,-24.3741432 22.2821928,-32.976635 31.4668669,-34.4036723 C37.4707108,-35.336499 43.5112319,-32.960831 47.2711214,-28.1880395 Z" opacity=".05" transform="rotate(-127 389.521 184.318)"/>
    <rect width="545" height="545"/>
  </g>
</svg>
