<svg xmlns="http://www.w3.org/2000/svg" width="40" height="40" viewBox="0 0 40 40">
  <defs>
    <linearGradient id="a" x1="23.289%" x2="76.333%" y1="23.398%" y2="76.687%">
      <stop stop-color="#738EF5" offset="0%"/>
      <stop stop-color="#B3AEFF" offset="100%"/>
    </linearGradient>
  </defs>
  <g fill="none" fill-rule="evenodd">
    <path fill="#202225" d="M34.40872,8.45836 L22.68432,8.45836 L22.68432,24.33716 L35.77912,24.33716 C37.98832,24.33716 39.77912,22.54636 39.77912,20.33716 L39.77912,13.82876 C39.77912,10.86276 37.37472,8.45836 34.40872,8.45836"/>
    <path fill="#202225" d="M22.67416,8.45836 L22.67416,4.39996 C22.67416,2.19076 20.88336,0.39996 18.67416,0.39996 L9.08696,0.39996 L9.08696,8.45836 L9.08696,30.22916 L9.08696,34.28756 C9.08696,36.49676 10.87776,38.28756 13.08696,38.28756 L26.18176,38.28756 L26.18176,21.29756 L22.67416,8.45836 Z"/>
    <path fill="url(#a)" d="M4 .4C1.7908.4 0 2.1908 0 4.4L0 30.8468C0 33.0556 1.7908 34.8468 4 34.8468L10.8308 34.8468C13.0396 34.8468 14.8304 33.0556 14.8304 30.8468L14.8304 4.2124C14.8304 2.1068 16.5372.4 18.6428.4L4 .4zM22.6844 8.434L22.6844 34.7556C22.6844 36.7644 24.3736 38.3796 26.4092 38.2568 28.2832 38.1436 29.6996 36.4968 29.6996 34.6188L29.6996 13.8044C29.6996 10.8384 32.104 8.434 35.07 8.434L22.6844 8.434z"/>
  </g>
</svg>
