<svg xmlns="http://www.w3.org/2000/svg" width="40" height="40" viewBox="0 0 40 40">
  <defs>
    <linearGradient id="a" x1="23.289%" x2="76.333%" y1="23.398%" y2="76.687%">
      <stop stop-color="#738EF5" offset="0%"/>
      <stop stop-color="#B3AEFF" offset="100%"/>
    </linearGradient>
  </defs>
  <g fill="none" fill-rule="evenodd">
    <polygon points="27.347 17.327 40 17.327 40 37.735 27.347 37.735"/>
    <path fill="#202225" d="M38.3673878,37.7347347 L27.3469796,37.7347347 L27.3469796,17.3265714 L38.3673878,17.3265714 C39.2690204,17.3265714 40.0000408,18.0575918 40.0000408,18.9592245 L40.0000408,36.1020816 C40.0000408,37.0037143 39.2690204,37.7347347 38.3673878,37.7347347"/>
    <path d="M1.63306122,17.3269388 C0.731020408,17.3269388 0,18.057551 0,18.9591837 L0,36.1020408 C0,37.0036735 0.731020408,37.7346939 1.63306122,37.7346939 L27.3473469,37.7346939 L27.3473469,17.3269388 L1.63306122,17.3269388 Z"/>
    <path fill="url(#a)" d="M1.63306122,17.3269388 C0.731020408,17.3269388 0,18.057551 0,18.9591837 L0,36.1020408 C0,37.0036735 0.731020408,37.7346939 1.63306122,37.7346939 L27.3473469,37.7346939 L27.3473469,17.3269388 L1.63306122,17.3269388 Z"/>
    <path d="M27.3473469,1 L27.3473469,17.3269388 L35.1020408,17.3269388 C36.0036735,17.3269388 36.7346939,16.5959184 36.7346939,15.6938776 L36.7346939,2.63306122 C36.7346939,1.73102041 36.0036735,1 35.1020408,1 L27.3473469,1 Z"/>
    <path fill="url(#a)" d="M27.3473469,1 L27.3473469,17.3269388 L35.1020408,17.3269388 C36.0036735,17.3269388 36.7346939,16.5959184 36.7346939,15.6938776 L36.7346939,2.63306122 C36.7346939,1.73102041 36.0036735,1 35.1020408,1 L27.3473469,1 Z"/>
    <path fill="#202225" d="M27.3469796,17.3265714 L11.8367755,17.3265714 C10.9351429,17.3265714 10.2041224,16.595551 10.2041224,15.6939184 L10.2041224,2.63269388 C10.2041224,1.73106122 10.9351429,1.00004082 11.8367755,1.00004082 L27.3469796,1.00004082 L27.3469796,17.3265714 Z"/>
    <path fill="#FFFFFF" d="M24.898 6.41436735L20.8163673 6.41436735C20.5910612 6.41436735 20.4082041 6.23191837 20.4082041 6.00620408L20.4082041 5.18987755C20.4082041 4.96457143 20.5910612 4.78171429 20.8163673 4.78171429L24.898 4.78171429C25.1233061 4.78171429 25.3061633 4.96457143 25.3061633 5.18987755L25.3061633 6.00620408C25.3061633 6.23191837 25.1233061 6.41436735 24.898 6.41436735M24.898 9.67967347L20.8163673 9.67967347C20.5910612 9.67967347 20.4082041 9.49722449 20.4082041 9.2715102L20.4082041 8.45518367C20.4082041 8.22987755 20.5910612 8.04702041 20.8163673 8.04702041L24.898 8.04702041C25.1233061 8.04702041 25.3061633 8.22987755 25.3061633 8.45518367L25.3061633 9.2715102C25.3061633 9.49722449 25.1233061 9.67967347 24.898 9.67967347M24.898 22.6912653L18.775551 22.6912653C18.5502449 22.6912653 18.3673878 22.5084082 18.3673878 22.283102L18.3673878 21.4667755C18.3673878 21.2414694 18.5502449 21.0586122 18.775551 21.0586122L24.898 21.0586122C25.1233061 21.0586122 25.3061633 21.2414694 25.3061633 21.4667755L25.3061633 22.283102C25.3061633 22.5084082 25.1233061 22.6912653 24.898 22.6912653M24.898 25.9565714L15.5102449 25.9565714C15.2849388 25.9565714 15.1020816 25.7737143 15.1020816 25.5484082L15.1020816 24.7320816C15.1020816 24.5067755 15.2849388 24.3239184 15.5102449 24.3239184L24.898 24.3239184C25.1233061 24.3239184 25.3061633 24.5067755 25.3061633 24.7320816L25.3061633 25.5484082C25.3061633 25.7737143 25.1233061 25.9565714 24.898 25.9565714"/>
  </g>
</svg>
