<svg xmlns="http://www.w3.org/2000/svg" width="40" height="40" viewBox="0 0 40 40" xmlns:xlink="http://www.w3.org/1999/xlink">
  <defs>
    <linearGradient id="a" x1="23.289%" x2="76.333%" y1="23.398%" y2="76.687%">
      <stop stop-color="#738EF5" offset="0%"/>
      <stop stop-color="#B3AEFF" offset="100%"/>
    </linearGradient>
    <path id="b" d="M6.65442101,20.9682393 C6.64268188,20.9373698 6.62876883,20.906935 6.62311666,20.8751959 C6.62876883,20.906935 6.64268188,20.9373698 6.65442101,20.9682393 Z"/>
    <path id="c" d="M6.61744825,20.756492 C6.61744823,20.7516675 6.61764711,20.7468177 6.61815729,20.7419199 C6.61598338,20.7627895 6.61989642,20.7827895 6.61989642,20.8036591 C6.61956368,20.7876872 6.61744834,20.7722247 6.61744825,20.756492 L6.61744825,20.7564919 L6.61744825,20.756492 Z"/>
    <path id="d" d="M6.76631941,21.1408351 C6.72544985,21.099096 6.69240637,21.0543134 6.66805854,21.0069221 C6.69240637,21.0543134 6.72501507,21.099096 6.76631941,21.1408351 Z"/>
  </defs>
  <g fill="none" fill-rule="evenodd">
    <path fill="#202225" d="M27.8217391,18.328192 C27.8217391,17.6587129 27.2797245,17.1166982 26.6106328,17.1166982 L21.4915196,17.1166982 C20.5268188,17.1166982 19.7445975,16.3340895 19.7445975,15.3686139 C19.7445975,14.4035256 20.5268188,13.6209169 21.4915196,13.6209169 L21.5298752,13.6209169 C22.9730521,13.6209169 24.1427034,12.4508782 24.1427034,11.0073138 C24.1427034,9.56336203 22.9730521,8.39293586 21.5298752,8.39293586 L16.5130435,8.39293586 C15.3759363,8.39293586 14.4542402,7.47123978 14.4542402,6.33374516 C14.4542402,5.19586311 15.3759363,4.2737796 16.5130435,4.2737796 L31.0428325,4.2737796 C23.6599656,-1.31296169 13.084675,-0.856956522 6.21282824,5.51588033 C3.94520017,7.61846319 2.30249677,10.125523 1.27580715,12.8142876 L11.5109341,12.8142876 C12.9498493,12.8142876 14.1164012,13.9808394 14.1164012,15.4201421 C14.1164012,16.8594447 12.9498493,18.026384 11.5109341,18.026384 L5.812613,18.026384 C5.1834266,18.026384 4.67318123,18.5366294 4.67318123,19.1662032 C4.67318123,19.7961644 5.1834266,20.3064098 5.812613,20.3064098 L7.06517434,20.3064098 C7.07718467,20.305635 7.08725786,20.3009858 7.10004305,20.3009858 L19.1479552,20.3009858 C19.415282,20.3009858 19.6322428,20.5179466 19.6322428,20.7856608 L19.6322428,32.8386096 C19.6322428,33.2702066 19.1103745,33.4863926 18.8054671,33.1810977 L15.8640981,30.2393414 C15.6750323,30.0495006 15.3681877,30.0495006 15.1791218,30.2393414 L10.0840293,35.3363711 C9.62414981,35.7962505 9.73611709,36.5761472 10.3110633,36.8806672 C17.6311666,40.7580672 26.9105037,39.6190228 33.0733534,33.453461 C36.9096858,29.615579 38.7949204,24.5693026 38.7418424,19.5396858 L29.0328455,19.5396858 C28.3637538,19.5396858 27.8217391,18.9972837 27.8217391,18.328192"/>
    <path fill="url(#a)" d="M26.9597073,23.2722256 C25.9372794,23.2722256 25.1077916,24.1009384 25.1077916,25.1237538 L25.1077916,25.5623246 C25.1077916,26.5847525 25.9372794,27.4138528 26.9597073,27.4138528 L30.217994,27.4138528 C31.2408093,27.4138528 32.0699096,26.5847525 32.0699096,25.5623246 L32.0699096,25.1237538 C32.0699096,24.1009384 31.2408093,23.2722256 30.217994,23.2722256 L26.9597073,23.2722256 Z"/>
    <path d="M6.65442101,20.9682393 C6.64268188,20.9373698 6.62876883,20.906935 6.62311666,20.8751959 C6.62876883,20.906935 6.64268188,20.9373698 6.65442101,20.9682393"/>
    <path d="M6.61989642,20.8036591 C6.61989642,20.7827895 6.61598338,20.7627895 6.61815729,20.7419199 C6.61598338,20.7627895 6.61946164,20.7827895 6.61989642,20.8036591"/>
    <path fill="#2A2C7D" d="M31.4092639,10.513418 C31.4092639,11.2828541 32.0330263,11.9070039 32.8020749,11.9070039 L37.0928627,11.9070039 C36.6690142,10.9469522 36.1653551,10.0144081 35.5783986,9.12021954 L32.8020749,9.12021954 C32.0330263,9.12021954 31.4092639,9.74398192 31.4092639,10.513418"/>
    <path d="M9.69853638,24.0707189 C9.71635816,24.0881533 9.72371933,24.1113991 9.73844167,24.131158 C9.72371933,24.1113991 9.71635816,24.0881533 9.69853638,24.0707189 L8.22746449,22.5992596 L9.69853638,24.0707189 Z"/>
    <path d="M6.76631941 21.1408351C6.72544985 21.099096 6.69240637 21.0543134 6.66805854 21.0069221 6.69240637 21.0543134 6.72501507 21.099096 6.76631941 21.1408351M9.69853638 24.7564701L7.03921653 27.4165648 9.69853638 24.7564701C9.72216961 24.7324494 9.73379251 24.7030047 9.75161429 24.6762721 9.73379251 24.7030047 9.72216961 24.7324494 9.69853638 24.7564701M6.64287559 20.6391433C6.64548429 20.6313173 6.64635385 20.6230564 6.64896255 20.6152303 6.64635385 20.6230564 6.64548429 20.6313173 6.64287559 20.6391433"/>
    <path fill="url(#a)" d="M16.5130435,4.27381834 C15.3759363,4.27381834 14.4542402,5.19590185 14.4542402,6.33339647 C14.4542402,7.47127852 15.3759363,8.3929746 16.5130435,8.3929746 L21.5298752,8.3929746 C22.9730521,8.3929746 24.1427034,9.5637882 24.1427034,11.0073526 C24.1427034,12.4509169 22.9730521,13.6209557 21.5298752,13.6209557 L21.4915196,13.6209557 C20.5268188,13.6209557 19.7442101,14.4035644 19.7442101,15.3686526 C19.7442101,16.3341283 20.5268188,17.116737 21.4915196,17.116737 L26.6106328,17.116737 C27.2793371,17.116737 27.8217391,17.6587516 27.8217391,18.3282307 C27.8217391,18.9973224 28.3637538,19.5397245 29.0328455,19.5397245 L38.7418424,19.5397245 C38.7143349,16.9334826 38.1649591,14.3338269 37.0929402,11.9069651 L32.8021524,11.9069651 C32.0327163,11.9069651 31.4093414,11.2832028 31.4093414,10.5133793 C31.4093414,9.74394318 32.0327163,9.1201808 32.8021524,9.1201808 L35.5780887,9.1201808 C34.6211365,7.66266896 33.4514851,6.30395179 32.0606113,5.09362032 C31.729746,4.80537236 31.3884201,4.53533362 31.0428325,4.27381834 L16.5130435,4.27381834 Z"/>
    <path fill="#2A2C7D" d="M6.65097288 20.9581059C6.6579294 20.9763668 6.66097288 20.9950624 6.67010331 21.0128885 6.66097288 20.9950624 6.6579294 20.9763668 6.65097288 20.9581059M6.61960683 20.796935C6.62004161 20.8260654 6.61830248 20.8556307 6.62351987 20.8847611 6.61830248 20.8556307 6.61960683 20.8260654 6.61960683 20.796935M8.227387 22.5992208L6.7574774 21.1285364C6.75670254 21.1277615 6.75631511 21.1269867 6.75554025 21.1262118 6.75631511 21.1269867 6.75670254 21.1277615 6.7574774 21.1285364L8.227387 22.5992208zM6.61808007 20.7547611C6.62242789 20.7143263 6.63286268 20.6747611 6.64590616 20.6365002 6.63329746 20.6751959 6.62199311 20.7143263 6.61808007 20.7547611M6.64853207 20.6528455C6.7148617 20.4689324 6.87178788 20.3224107 7.08331468 20.3067585 6.87097899 20.3224107 6.7140528 20.4671933 6.64853207 20.6528455M9.75318554 24.6759621C9.87796814 24.5078175 9.87318554 24.2943435 9.73840293 24.130848 9.87318554 24.2943435 9.87753336 24.5078175 9.75318554 24.6759621"/>
    <path fill="url(#a)" d="M1.27580715,12.8139389 C-0.849634094,18.3813087 -0.319629789,24.7305123 2.87085665,29.9065777 C3.19746018,30.4369694 3.93938872,30.5171675 4.37989669,30.0766595 L7.03921653,27.4165648 L9.69853638,24.7564701 C9.72216961,24.7324494 9.73379251,24.7030047 9.75161429,24.6762721 C9.86241929,24.5081274 9.85854498,24.294266 9.73844167,24.131158 C9.72371933,24.1113991 9.71635816,24.0881533 9.69853638,24.0707189 L8.22746449,22.5992596 L6.75716746,21.1285751 C6.7563926,21.1278003 6.7563926,21.1270254 6.75561774,21.1262505 C6.71881188,21.0890573 6.68975463,21.049152 6.66805854,21.0069221 C6.65992251,20.9910375 6.6572105,20.974378 6.65101162,20.9581059 C6.64055101,20.9305984 6.62815325,20.9034783 6.62311666,20.8751959 C6.6184675,20.8492381 6.62001722,20.8232802 6.61962979,20.796935 C6.61962979,20.7783384 6.61614292,20.7605166 6.61808007,20.7419199 C6.62156694,20.7055015 6.63125269,20.6710202 6.64287559,20.636539 C6.64520017,20.6295652 6.64597503,20.622204 6.64829961,20.6152303 C6.71106328,20.4497977 6.86177357,20.3207835 7.06517434,20.306836 L7.06517434,20.3064486 L5.812613,20.3064486 C5.18303917,20.3064486 4.67318123,19.7958158 4.67318123,19.1662419 C4.67318123,18.5366681 5.18303917,18.0264227 5.812613,18.0264227 L11.5113216,18.0264227 C12.9498493,18.0264227 14.1164012,16.8594834 14.1164012,15.4201808 C14.1164012,13.9808782 12.9498493,12.8139389 11.5113216,12.8139389 L1.27580715,12.8139389 Z"/>
  </g>
</svg>
