<svg xmlns="http://www.w3.org/2000/svg" width="40" height="40" viewBox="0 0 40 40" xmlns:xlink="http://www.w3.org/1999/xlink">
  <defs>
    <linearGradient id="a" x1="139.809%" x2="249.024%" y1="-4.811%" y2="50%">
      <stop stop-color="#738EF5" offset="0%"/>
      <stop stop-color="#B3AEFF" offset="100%"/>
      <stop stop-color="#B3AEFF" offset="100%"/>
    </linearGradient>
    <path id="b" d="M19.999617,5.10638298 C19.3106383,5.10638298 18.6308511,5.12017021 17.9606383,5.14468085 C17.7545957,5.15234043 17.5925957,5.32238298 17.5925957,5.52880851 L17.5925957,16.2518298 C17.5925957,16.4689787 17.7714468,16.6409362 17.9882128,16.6328936 C18.649617,16.6091489 19.3202128,16.5957447 19.999617,16.5957447 C20.6801702,16.5957447 21.350766,16.6091489 22.0117872,16.6328936 C22.2285532,16.6409362 22.4074043,16.4689787 22.4074043,16.2518298 L22.4074043,5.52880851 C22.4074043,5.32238298 22.2454043,5.15234043 22.0393617,5.14468085 C21.3691489,5.12017021 20.6893617,5.10638298 19.999617,5.10638298 Z"/>
    <path id="c" d="M30.2856596,6.60651064 L30.2856596,17.310383 C30.2856596,17.489234 30.4120426,17.6431915 30.5862979,17.6826383 C32.078383,18.0200426 33.4226383,18.426383 34.580383,18.8886383 C34.8300851,18.9882128 35.1000851,18.7994043 35.1000851,18.5309362 L35.1000851,7.87110638 C35.1000851,7.71638298 35.0108511,7.57659574 34.868,7.51646809 C33.6899574,7.02357447 32.3047234,6.59042553 30.7559574,6.23195745 C30.7268511,6.22506383 30.6981277,6.222 30.6697872,6.222 C30.4641277,6.222 30.2856596,6.39051064 30.2856596,6.60651064"/>
    <path id="d" d="M36.632383,9.09510638 L36.632383,19.668383 C36.632383,19.8008936 36.703234,19.9230638 36.8158298,19.9931489 C38.3010213,20.9184255 39.1489362,21.9781277 39.1489362,23.106383 L39.1489362,11.6166383 C39.1489362,10.5986809 38.4576596,9.63587234 37.2313617,8.778 C37.1643404,8.73089362 37.0904255,8.70982979 37.0180426,8.70982979 C36.8192766,8.70982979 36.632383,8.86991489 36.632383,9.09510638"/>
    <path id="e" d="M15.6455319,5.27604255 C14.2162553,5.38902128 12.8505532,5.55714894 11.5641277,5.77276596 C11.3791489,5.80340426 11.2458723,5.96425532 11.2458723,6.15191489 L11.2458723,16.8649787 C11.2458723,17.1012766 11.4561277,17.2793617 11.6897447,17.2414468 C12.9574043,17.0327234 14.3016596,16.8699574 15.7060426,16.7608085 C15.9051915,16.7454894 16.0602979,16.5800426 16.0602979,16.3801277 L16.0602979,5.65940426 C16.0602979,5.44608511 15.8856596,5.27489362 15.6757872,5.27489362 C15.6658298,5.27489362 15.6558723,5.2752766 15.6455319,5.27604255"/>
    <path id="f" d="M2.76902128,8.778 C1.54234043,9.63587234 0.85106383,10.5986809 0.85106383,11.6166383 L0.85106383,23.106383 C0.85106383,21.9781277 1.69897872,20.9184255 3.18417021,19.9931489 C3.29638298,19.9230638 3.36761702,19.8008936 3.36761702,19.668383 L3.36761702,9.09510638 C3.36761702,8.86991489 3.1807234,8.70982979 2.98195745,8.70982979 C2.90995745,8.70982979 2.83604255,8.73089362 2.76902128,8.778"/>
    <polygon id="g" points=".851 15.447 5.009 15.447 5.009 30.775 .851 30.775"/>
  </defs>
  <g fill="none" fill-rule="evenodd">
    <path d="M9.24404255,6.23195745 C7.6952766,6.59042553 6.31004255,7.02357447 5.132,7.51646809 C4.98914894,7.57659574 4.89953191,7.71638298 4.89953191,7.87110638 L4.89953191,18.5309362 C4.89953191,18.7994043 5.16991489,18.9882128 5.41961702,18.8886383 C6.5773617,18.426383 7.92161702,18.0200426 9.41370213,17.6826383 C9.58795745,17.6431915 9.71434043,17.489234 9.71434043,17.310383 L9.71434043,6.60651064 C9.71434043,6.39051064 9.53587234,6.222 9.32982979,6.222 C9.30187234,6.222 9.27314894,6.22506383 9.24404255,6.23195745"/>
    <path fill="url(#a)" d="M9.24404255,6.23195745 C7.6952766,6.59042553 6.31004255,7.02357447 5.132,7.51646809 C4.98914894,7.57659574 4.89953191,7.71638298 4.89953191,7.87110638 L4.89953191,18.5309362 C4.89953191,18.7994043 5.16991489,18.9882128 5.41961702,18.8886383 C6.5773617,18.426383 7.92161702,18.0200426 9.41370213,17.6826383 C9.58795745,17.6431915 9.71434043,17.489234 9.71434043,17.310383 L9.71434043,6.60651064 C9.71434043,6.39051064 9.53587234,6.222 9.32982979,6.222 C9.30187234,6.222 9.27314894,6.22506383 9.24404255,6.23195745"/>
    <path d="M23.9393191,5.65940426 L23.9393191,16.3801277 C23.9393191,16.5800426 24.0944255,16.7454894 24.2939574,16.7608085 C25.6983404,16.8699574 27.0425957,17.0327234 28.3102553,17.2414468 C28.5438723,17.2793617 28.7541277,17.1012766 28.7541277,16.8649787 L28.7541277,6.15191489 C28.7541277,5.96425532 28.6204681,5.80340426 28.4358723,5.77276596 C27.1494468,5.55714894 25.7833617,5.38902128 24.3544681,5.27604255 C24.3441277,5.2752766 24.3341702,5.27489362 24.3242128,5.27489362 C24.1147234,5.27489362 23.9393191,5.44608511 23.9393191,5.65940426"/>
    <path fill="url(#a)" d="M23.9393191,5.65940426 L23.9393191,16.3801277 C23.9393191,16.5800426 24.0944255,16.7454894 24.2939574,16.7608085 C25.6983404,16.8699574 27.0425957,17.0327234 28.3102553,17.2414468 C28.5438723,17.2793617 28.7541277,17.1012766 28.7541277,16.8649787 L28.7541277,6.15191489 C28.7541277,5.96425532 28.6204681,5.80340426 28.4358723,5.77276596 C27.1494468,5.55714894 25.7833617,5.38902128 24.3544681,5.27604255 C24.3441277,5.2752766 24.3341702,5.27489362 24.3242128,5.27489362 C24.1147234,5.27489362 23.9393191,5.44608511 23.9393191,5.65940426"/>
    <path fill="url(#a)" d="M19.999617,5.10638298 C19.3106383,5.10638298 18.6308511,5.12017021 17.9606383,5.14468085 C17.7545957,5.15234043 17.5925957,5.32238298 17.5925957,5.52880851 L17.5925957,16.2518298 C17.5925957,16.4689787 17.7714468,16.6409362 17.9882128,16.6328936 C18.649617,16.6091489 19.3202128,16.5957447 19.999617,16.5957447 C20.6801702,16.5957447 21.350766,16.6091489 22.0117872,16.6328936 C22.2285532,16.6409362 22.4074043,16.4689787 22.4074043,16.2518298 L22.4074043,5.52880851 C22.4074043,5.32238298 22.2454043,5.15234043 22.0393617,5.14468085 C21.3691489,5.12017021 20.6893617,5.10638298 19.999617,5.10638298 Z"/>
    <path fill="url(#a)" d="M30.2856596,6.60651064 L30.2856596,17.310383 C30.2856596,17.489234 30.4120426,17.6431915 30.5862979,17.6826383 C32.078383,18.0200426 33.4226383,18.426383 34.580383,18.8886383 C34.8300851,18.9882128 35.1000851,18.7994043 35.1000851,18.5309362 L35.1000851,7.87110638 C35.1000851,7.71638298 35.0108511,7.57659574 34.868,7.51646809 C33.6899574,7.02357447 32.3047234,6.59042553 30.7559574,6.23195745 C30.7268511,6.22506383 30.6981277,6.222 30.6697872,6.222 C30.4641277,6.222 30.2856596,6.39051064 30.2856596,6.60651064"/>
    <path fill="url(#a)" d="M36.632383,9.09510638 L36.632383,19.668383 C36.632383,19.8008936 36.703234,19.9230638 36.8158298,19.9931489 C38.3010213,20.9184255 39.1489362,21.9781277 39.1489362,23.106383 L39.1489362,11.6166383 C39.1489362,10.5986809 38.4576596,9.63587234 37.2313617,8.778 C37.1643404,8.73089362 37.0904255,8.70982979 37.0180426,8.70982979 C36.8192766,8.70982979 36.632383,8.86991489 36.632383,9.09510638"/>
    <path fill="url(#a)" d="M15.6455319,5.27604255 C14.2162553,5.38902128 12.8505532,5.55714894 11.5641277,5.77276596 C11.3791489,5.80340426 11.2458723,5.96425532 11.2458723,6.15191489 L11.2458723,16.8649787 C11.2458723,17.1012766 11.4561277,17.2793617 11.6897447,17.2414468 C12.9574043,17.0327234 14.3016596,16.8699574 15.7060426,16.7608085 C15.9051915,16.7454894 16.0602979,16.5800426 16.0602979,16.3801277 L16.0602979,5.65940426 C16.0602979,5.44608511 15.8856596,5.27489362 15.6757872,5.27489362 C15.6658298,5.27489362 15.6558723,5.2752766 15.6455319,5.27604255"/>
    <path fill="url(#a)" d="M2.76902128,8.778 C1.54234043,9.63587234 0.85106383,10.5986809 0.85106383,11.6166383 L0.85106383,23.106383 C0.85106383,21.9781277 1.69897872,20.9184255 3.18417021,19.9931489 C3.29638298,19.9230638 3.36761702,19.8008936 3.36761702,19.668383 L3.36761702,9.09510638 C3.36761702,8.86991489 3.1807234,8.70982979 2.98195745,8.70982979 C2.90995745,8.70982979 2.83604255,8.73089362 2.76902128,8.778"/>
    <path fill="#202225" d="M34.9907447 19.7444043L34.9907447 30.3915957C34.9907447 30.6734681 35.2864043 30.8580638 35.5410851 30.7378085 37.8094681 29.6681489 39.1487447 28.3556809 39.1487447 26.9359787L39.1487447 15.446617C39.1487447 16.9318085 37.6827021 18.2998085 35.2209149 19.3951277 35.0826596 19.4567872 34.9907447 19.5927447 34.9907447 19.7444043M19.9999617 21.9573702C19.4312383 21.9573702 18.8686426 21.9485617 18.3129404 21.9317106 18.0973234 21.9252 17.9207702 22.0967745 17.9207702 22.3123915L17.9207702 33.0354128C17.9207702 33.2429872 18.0843021 33.4141787 18.2914936 33.4203064 18.8544723 33.4375404 19.4239617 33.4467319 19.9999617 33.4467319 20.5759617 33.4467319 21.145834 33.4375404 21.7084298 33.4203064 21.9156213 33.4141787 22.0791532 33.2429872 22.0791532 33.0354128L22.0791532 22.3123915C22.0791532 22.0967745 21.9026 21.9252 21.686983 21.9317106 21.1312809 21.9485617 20.5686851 21.9573702 19.9999617 21.9573702"/>
    <path fill="#202225" d="M.851025532 15.4467319L.851025532 26.9360936C.851025532 28.3557957 2.19068511 29.6678809 4.45868511 30.7375404 4.71374894 30.8577957 5.00902553 30.673583 5.00902553 30.3917106L5.00902553 19.7445191C5.00902553 19.5928596 4.91749362 19.4565191 4.7792383 19.3952426 2.31706809 18.2995404.851025532 16.9319234.851025532 15.4467319M23.6109532 22.1961957L23.6109532 32.9176851C23.6109532 33.1401957 23.8020596 33.3175149 24.0238043 33.3014298 25.2075915 33.2148766 26.3504 33.0915574 27.4422723 32.9349191 27.6310809 32.9077277 27.7689532 32.7449617 27.7689532 32.5542383L27.7689532 21.8384936C27.7689532 21.6056426 27.5652085 21.4283234 27.3346553 21.4608766 26.2581021 21.6129191 25.1329106 21.7324085 23.9678894 21.8158979 23.7675915 21.8300681 23.6109532 21.9955149 23.6109532 22.1961957M29.3010213 21.4519149L29.3010213 32.16C29.3010213 32.4016596 29.5246809 32.5847234 29.7617447 32.5368511 31.0037447 32.286383 32.1557447 31.9895745 33.1962979 31.6529362 33.3544681 31.601617 33.4586383 31.4534043 33.4586383 31.2871915L33.4586383 20.6020851C33.4586383 20.3428085 33.2089362 20.1608936 32.9611489 20.2382553 31.9405106 20.5576596 30.817617 20.8391489 29.611617 21.0773617 29.432383 21.1129787 29.3010213 21.269234 29.3010213 21.4519149M12.2307787 21.8384553L12.2307787 32.5542C12.2307787 32.7449234 12.369034 32.9076894 12.5578426 32.9348809 13.6497149 33.0915191 14.7921404 33.2152213 15.9763106 33.3013915 16.1980553 33.3174766 16.3887787 33.1401574 16.3887787 32.9176468L16.3887787 22.1961574C16.3887787 21.9954766 16.2325234 21.8304128 16.0322255 21.8158596 14.8672043 21.7323702 13.7416298 21.6128809 12.6654596 21.4608383 12.4349064 21.4282851 12.2307787 21.6056043 12.2307787 21.8384553M6.54109362 20.6021617L6.54109362 31.2868851C6.54109362 31.4534809 6.64526383 31.6016936 6.80381702 31.6526298 7.84398723 31.9892681 8.99598723 32.2860766 10.2383702 32.5369277 10.4750511 32.5848 10.6987106 32.4017362 10.6987106 32.1600766L10.6987106 21.4519915C10.6987106 21.2693106 10.5673489 21.1130553 10.3881149 21.0774383 9.18211489 20.8392255 8.05922128 20.5573532 7.03896596 20.2383319 6.79117872 20.1609702 6.54109362 20.3425021 6.54109362 20.6021617"/>
  </g>
</svg>
