<svg width="680" height="380" viewBox="0 0 680 380" fill="none" xmlns="http://www.w3.org/2000/svg">
<path opacity="0.5" d="M26 60.9999H94.4C94.4 60.9999 90 54.1799 83.49 55.9999C83.49 55.9999 82.16 46.1799 74.21 50.8099C74.21 50.8099 69.97 31.8099 49.32 53.2299C49.32 53.1899 35.51 51.9999 26 60.9999Z" fill="white"/>
<path opacity="0.5" d="M643.4 52.4499C647.3 39.4499 632.99 48.5499 632.99 48.5499C627.39 40.8799 610.41 56.9999 610.41 56.9999H659C659 56.9999 656.4 47.8999 643.4 52.4499Z" fill="white"/>
<path opacity="0.75" d="M582.45 73.3799C582.45 73.3799 606.58 60.0799 625.76 80.3799H628.67C634.778 80.39 640.787 81.9265 646.15 84.8499L648.3 85.9999H539.56C539.56 85.9999 566.39 58.6799 582.45 73.3799Z" fill="white"/>
</svg>
