<svg xmlns="http://www.w3.org/2000/svg" width="40" height="40" viewBox="0 0 40 40">
  <defs>
    <linearGradient id="a" x1="23.289%" x2="76.333%" y1="23.398%" y2="76.687%">
      <stop stop-color="#738EF5" offset="0%"/>
      <stop stop-color="#B3AEFF" offset="100%"/>
    </linearGradient>
  </defs>
  <g fill="none" fill-rule="evenodd">
    <polygon points=".741 0 27.183 0 27.183 39.867 .741 39.867"/>
    <path fill="#202225" d="M11.7245363,9.76341447 C11.7245363,6.62286257 14.2792857,4.06811309 17.4198376,4.06811309 C20.5603895,4.06811309 23.115139,6.62286257 23.115139,9.76341447 L23.115139,17.6013696 L27.1832114,17.6013696 L27.1832114,9.76341447 C27.1832114,4.81785884 21.48791,4.06807251e-05 21.48791,4.06807251e-05 L17.4198376,4.06807251e-05 C12.0365574,4.06807251e-05 7.65646384,4.38013425 7.65646384,9.76341447 L7.65646384,16.6791376 L2.36796971,16.6791376 C1.46933251,16.6791376 0.740740741,17.4077293 0.740740741,18.3063665 L0.740740741,38.2399214 C0.740740741,39.1385585 1.46933251,39.8671503 2.36796971,39.8671503 L11.7245363,39.8671503 L11.7245363,27.6629331 L13.4868252,27.6629331 L13.4868252,23.5948607 L11.7245363,23.5948607 L11.7245363,9.76341447 Z"/>
    <path d="M21.3207123,0.00109837955 C16.0139118,0.0910027798 11.7245363,4.43529731 11.7245363,9.76325175 L11.7245363,16.6789748 L11.7245363,39.8669876 L19.8606811,39.8669876 C20.7593183,39.8669876 21.48791,39.1383958 21.48791,38.2397586 L21.48791,31.0404909 C19.5124541,30.3411892 18.1187325,28.4108889 18.2407746,26.1685674 C18.3762415,23.6915181 20.4354997,21.6643976 22.9149898,21.5647298 C25.7020263,21.4528578 27.9968259,23.6797207 27.9968259,26.4427554 C27.9968259,28.5671029 26.6372761,30.3696657 24.742368,31.0404909 L24.742368,38.2397586 C24.742368,39.1383958 25.4709597,39.8669876 26.3695969,39.8669876 L36.539778,39.8669876 C37.4384152,39.8669876 38.1670069,39.1383958 38.1670069,38.2397586 L38.1670069,18.3066106 C38.1670069,17.4071598 37.4384152,16.6789748 36.539778,16.6789748 L31.2512838,16.6789748 L31.2512838,9.9853685 C31.2512838,4.57727304 26.8691562,0.000284765069 21.4818079,-0.000122042172 C21.4277026,-0.000122042172 21.3748176,0.000284765069 21.3207123,0.00109837955 Z M15.7926087,9.76325175 C15.7926087,6.62310665 18.3473581,4.06835718 21.48791,4.06835718 C24.6284619,4.06835718 27.1832114,6.62310665 27.1832114,9.76325175 L27.1832114,16.6789748 L15.7926087,16.6789748 L15.7926087,9.76325175 Z"/>
    <path fill="url(#a)" d="M21.3207123,0.00109837955 C16.0139118,0.0910027798 11.7245363,4.43529731 11.7245363,9.76325175 L11.7245363,16.6789748 L11.7245363,39.8669876 L19.8606811,39.8669876 C20.7593183,39.8669876 21.48791,39.1383958 21.48791,38.2397586 L21.48791,31.0404909 C19.5124541,30.3411892 18.1187325,28.4108889 18.2407746,26.1685674 C18.3762415,23.6915181 20.4354997,21.6643976 22.9149898,21.5647298 C25.7020263,21.4528578 27.9968259,23.6797207 27.9968259,26.4427554 C27.9968259,28.5671029 26.6372761,30.3696657 24.742368,31.0404909 L24.742368,38.2397586 C24.742368,39.1383958 25.4709597,39.8669876 26.3695969,39.8669876 L36.539778,39.8669876 C37.4384152,39.8669876 38.1670069,39.1383958 38.1670069,38.2397586 L38.1670069,18.3066106 C38.1670069,17.4071598 37.4384152,16.6789748 36.539778,16.6789748 L31.2512838,16.6789748 L31.2512838,9.9853685 C31.2512838,4.57727304 26.8691562,0.000284765069 21.4818079,-0.000122042172 C21.4277026,-0.000122042172 21.3748176,0.000284765069 21.3207123,0.00109837955 Z M15.7926087,9.76325175 C15.7926087,6.62310665 18.3473581,4.06835718 21.48791,4.06835718 C24.6284619,4.06835718 27.1832114,6.62310665 27.1832114,9.76325175 L27.1832114,16.6789748 L15.7926087,16.6789748 L15.7926087,9.76325175 Z"/>
  </g>
</svg>
