<svg xmlns="http://www.w3.org/2000/svg" width="40" height="40" viewBox="0 0 219 202"><style>.st1{fill:#3a3b78}</style><linearGradient id="SVGID_1_" gradientUnits="userSpaceOnUse" x1="4.147" y1="917.32" x2="214.252" y2="917.32" gradientTransform="matrix(1 0 0 -1 0 1018.32)"><stop offset="0" stop-color="#6392ff"/><stop offset="1" stop-color="#8187ff"/></linearGradient><path d="M155.4 8.4H63c-4.4 0-8.6 2.3-10.9 6.3l-46.2 80c-2.3 4-2.3 8.6 0 12.6l46.2 80c2.3 4 6.5 6.3 10.9 6.3h92.4c4.4 0 8.6-2.3 10.9-6.3l46.2-80c2.3-4 2.3-8.6 0-12.6l-46.2-80c-2.3-4-6.5-6.3-10.9-6.3zm-17.2 155.2H80.4c-4.4 0-8.6-2.3-10.9-6.3l-29.2-50c-2.3-4-2.3-8.6 0-12.6l29-50.2c2.3-4 6.5-6.3 10.9-6.3h58c4.4 0 8.6 2.3 10.9 6.3l29 50.2c2.3 4 2.3 8.6 0 12.6l-29 50.2c-2.3 3.8-6.5 6.1-10.9 6.1z" fill="url(#SVGID_1_)"/><path class="st1" d="M160 91.8l-17.4-30.4c-.8-1.4-2.6-1.4-3.4 0l-17.4 30.4c-.8 1.4.2 3 1.8 3h35c1.2 0 2.2-1.6 1.4-3zM126.6 52.4h-35c-1.6 0-2.6 1.6-1.8 3l17.4 30.4c.8 1.4 2.6 1.4 3.4 0L128 55.4c1.2-1.4.2-3-1.4-3zM75.8 61.6L58.4 92c-.8 1.4.2 3 1.8 3h35c1.6 0 2.6-1.6 1.8-3L79.6 61.6c-1-1.4-3-1.4-3.8 0zM91.6 149.4h35c1.6 0 2.6-1.6 1.8-3L111 116c-.8-1.4-2.6-1.4-3.4 0l-17.4 30.4c-1 1.4 0 3 1.4 3zM58.4 110l17.4 30.4c.8 1.4 2.6 1.4 3.4 0L96.6 110c.8-1.4-.2-3-1.8-3h-35c-1.2 0-2.2 1.8-1.4 3zM121.4 110l17.4 30.4c.8 1.4 2.6 1.4 3.4 0l17.4-30.4c.8-1.4-.2-3-1.8-3h-35c-1.2 0-2 1.8-1.4 3z"/></svg>
