<svg width="40" height="40" viewBox="0 0 40 40" fill="none" xmlns="http://www.w3.org/2000/svg">
<circle cx="20" cy="20" r="20" fill="#202225"/>
<path d="M20.5516 26.0689V30L26.1378 24.3448L23.3792 23.2413L20.5516 26.0689Z" fill="#7289DA"/>
<path d="M16.7586 17.3793L14 16.2069V23.7241L16.7586 22.6207V17.3793Z" fill="#7289DA"/>
<path d="M26.1378 15.5862L20.5516 10V13.8621L23.3792 16.6897L26.1378 15.5862Z" fill="#7289DA"/>
<path d="M19.8621 13.8621V10L14.2759 15.5862L17.0345 16.6897L19.8621 13.8621Z" fill="#7289DA"/>
<path d="M14.2759 24.3448L19.8621 30V26.0689L17.0345 23.2413L14.2759 24.3448Z" fill="#7289DA"/>
<path d="M23.6552 22.6207L26.4138 23.7241V16.2069L23.6552 17.3793V22.6207Z" fill="#7289DA"/>
<path d="M22.9656 17.2414L20.207 14.4828L17.4484 17.2414V22.6897L20.207 25.4483L22.9656 22.6897V17.2414Z" fill="#7289DA"/>
</svg>
