<svg xmlns="http://www.w3.org/2000/svg" width="40" height="40" viewBox="0 0 40 40">
  <defs>
    <linearGradient id="a" x1="23.289%" x2="76.333%" y1="23.398%" y2="76.687%">
      <stop stop-color="#738EF5" offset="0%"/>
      <stop stop-color="#B3AEFF" offset="100%"/>
    </linearGradient>
  </defs>
  <g fill="none" fill-rule="evenodd">
    <path fill="#202225" d="M13.161817 25.8297872L13.161817 4 12.9490511 4 12.9490511 25.8393617C13.0201149 25.8374468 13.0899021 25.8297872 13.161817 25.8297872M9.38723404 13.1531532L3.14468085 13.1531532C1.96012766 13.1531532 1 12.1930255 1 11.0084723 1 9.82430213 1.96012766 8.86379149 3.14468085 8.86379149L9.38723404 8.86379149C9.5986383 8.86379149 9.77021277 9.03536596 9.77021277 9.24677021L9.77021277 12.7701745C9.77021277 12.9815787 9.5986383 13.1531532 9.38723404 13.1531532M9.38723404 21.7319915L3.14468085 21.7319915C1.96012766 21.7319915 1 20.7718638 1 19.5873106 1 18.4027574 1.96012766 17.4426298 3.14468085 17.4426298L9.38723404 17.4426298C9.5986383 17.4426298 9.77021277 17.6142043 9.77021277 17.8256085L9.77021277 21.3490128C9.77021277 21.560417 9.5986383 21.7319915 9.38723404 21.7319915"/>
    <path d="M7.01276596,4 C6.16676596,4 5.48085106,4.68591489 5.48085106,5.53191489 L5.48085106,13.1531915 L7.43404255,13.1531915 C8.61859574,13.1531915 9.5787234,14.1133191 9.5787234,15.2978723 C9.5787234,16.4824255 8.61859574,17.4425532 7.43404255,17.4425532 L5.48085106,17.4425532 L5.48085106,29.6595745 C5.48085106,30.5055745 6.16676596,31.1914894 7.01276596,31.1914894 L7.41221277,31.1914894 C7.61634043,31.1914894 7.77757447,31.0291064 7.79097872,30.8245957 C7.97940426,28.0380426 10.2998723,25.8405106 13.1342979,25.8362979 C13.1365957,25.833617 13.1377447,25.8320851 13.1404255,25.8297872 L13.1404255,4 L7.01276596,4 Z"/>
    <path fill="url(#a)" d="M7.01276596,4 C6.16676596,4 5.48085106,4.68591489 5.48085106,5.53191489 L5.48085106,13.1531915 L7.43404255,13.1531915 C8.61859574,13.1531915 9.5787234,14.1133191 9.5787234,15.2978723 C9.5787234,16.4824255 8.61859574,17.4425532 7.43404255,17.4425532 L5.48085106,17.4425532 L5.48085106,29.6595745 C5.48085106,30.5055745 6.16676596,31.1914894 7.01276596,31.1914894 L7.41221277,31.1914894 C7.61634043,31.1914894 7.77757447,31.0291064 7.79097872,30.8245957 C7.97940426,28.0380426 10.2998723,25.8405106 13.1342979,25.8362979 C13.1365957,25.833617 13.1377447,25.8320851 13.1404255,25.8297872 L13.1404255,4 L7.01276596,4 Z"/>
    <path fill="#202225" d="M16.9703277 31.1914894C16.9703277 29.0766809 15.2553489 27.3617021 13.1405404 27.3617021 11.0253489 27.3617021 9.31075319 29.0766809 9.31075319 31.1914894 9.31075319 33.3062979 11.0253489 35.0212766 13.1405404 35.0212766 15.2553489 35.0212766 16.9703277 33.3062979 16.9703277 31.1914894M33.8213915 31.1914894C33.8213915 29.0766809 32.1064128 27.3617021 29.9916043 27.3617021 27.8764128 27.3617021 26.161817 29.0766809 26.161817 31.1914894 26.161817 33.3062979 27.8764128 35.0212766 29.9916043 35.0212766 32.1064128 35.0212766 33.8213915 33.3062979 33.8213915 31.1914894"/>
    <path fill="#202225" d="M36.6168681,20.8046851 L30.7572936,20.8046851 L30.7572936,15.8259617 L35.0849532,15.8259617 C35.9309532,15.8259617 36.6168681,16.5118766 36.6168681,17.3578766 L36.6168681,20.8046851 Z M36.9998468,13.1914511 L30.1062298,13.1914511 L30.1062298,5.5318766 C30.1062298,4.6858766 29.4203149,3.9999617 28.5743149,3.9999617 L12.948783,3.9999617 L13.1402723,3.9999617 L13.1402723,25.8297489 C15.5652936,25.8297489 17.6138468,27.4394085 18.276783,29.6484298 C18.3912936,30.0298766 18.4644426,30.4297064 18.4908681,30.8417915 C18.5035064,31.0401745 18.673166,31.1914511 18.8715489,31.1914511 L24.2623574,31.1914511 C24.4672511,31.1914511 24.6284851,31.0286851 24.6422723,30.8241745 C24.8306979,28.0345574 27.1538468,25.8297489 29.9913362,25.8297489 C32.8292085,25.8297489 35.1523574,28.0345574 35.340783,30.8241745 C35.3545702,31.0286851 35.5158043,31.1914511 35.7206979,31.1914511 L37.3828255,31.1914511 C38.4406128,31.1914511 39.2977191,30.3343447 39.2977191,29.2765574 L39.2977191,15.4893234 C39.2977191,14.2205149 38.2690383,13.1914511 36.9998468,13.1914511 Z"/>
  </g>
</svg>
