<svg width="40" height="40" viewBox="0 0 40 40" fill="none" xmlns="http://www.w3.org/2000/svg">
<g clip-path="url(#clip0)">
<circle cx="19.9999" cy="20" r="20" fill="#202225"/>
<path d="M25.5389 16.7802L22.5338 18.7336C22.2333 19.0341 21.7825 18.8838 21.6322 18.7336C21.3317 18.4331 20.881 18.2828 20.5804 18.1325C19.8292 17.9823 19.0779 18.1325 18.4768 18.4331L17.425 19.1843L11.8655 22.7905C10.6635 23.5418 9.16088 23.2413 8.4096 22.0392C7.65831 20.8372 7.95882 19.3346 9.16088 18.5833L15.6219 14.2259C17.425 13.1741 19.5286 12.7233 21.482 13.1741C23.1348 13.4746 24.6374 14.3761 25.6892 15.7284C25.9897 16.0289 25.9897 16.63 25.5389 16.7802Z" fill="#7289DA"/>
<path d="M32 19.7854C32 20.687 31.5492 21.4382 30.7979 21.889L24.1866 26.2465C22.9845 26.9978 21.482 27.4485 20.1297 27.4485C19.5286 27.4485 18.9276 27.4485 18.4768 27.2983C16.824 26.9978 15.4717 25.946 14.2696 24.7439C13.9691 24.4434 13.9691 23.8424 14.4199 23.6921L17.425 21.7388C17.7255 21.4382 18.1763 21.5885 18.3266 21.7388C18.6271 22.0393 18.9276 22.1895 19.3784 22.3398C20.1297 22.49 20.8809 22.3398 21.482 22.0393L22.9845 21.1377L27.4923 18.1326L28.0933 17.6818C29.2954 16.9305 30.7979 17.231 31.5492 18.4331C31.8497 18.8839 32 19.3346 32 19.7854Z" fill="#7289DA"/>
</g>
<defs>
<clipPath id="clip0">
<rect width="40" height="40" fill="white"/>
</clipPath>
</defs>
</svg>
