<svg xmlns="http://www.w3.org/2000/svg" width="40" height="40" viewBox="0 0 40 40">
  <defs>
    <linearGradient id="a" x1="23.289%" x2="76.333%" y1="23.398%" y2="76.687%">
      <stop stop-color="#738EF5" offset="0%"/>
      <stop stop-color="#B3AEFF" offset="100%"/>
    </linearGradient>
    <linearGradient id="b" x1="14.781%" x2="92.829%" y1="-5.324%" y2="96.364%">
      <stop stop-color="#738EF5" offset="0%"/>
      <stop stop-color="#B3AEFF" offset="100%"/>
      <stop stop-color="#B3AEFF" offset="100%"/>
    </linearGradient>
  </defs>
  <g fill="none" fill-rule="evenodd">
    <path d="M16.1752045,0.387313818 C14.463926,0.387313818 13.0761515,1.77508825 13.0761515,3.4867542 C13.0761515,5.19842015 14.463926,6.58619458 16.1752045,6.58619458 L18.4273353,6.58619458 C19.0654326,6.58619458 19.5830392,7.10380112 19.5830392,7.74189841 C19.5830392,8.38038313 19.0654326,8.89760224 18.4273353,8.89760224 L3.09944038,8.89760224 C1.38777443,8.89760224 0,10.2853767 0,11.9970426 C0,13.709096 1.38777443,15.096483 3.09944038,15.096483 L20.8247525,15.096483 C21.4628498,15.096483 21.9800689,15.6137021 21.9800689,16.2521868 L21.9800689,16.2657469 C21.9800689,16.9038442 21.4628498,17.4210633 20.8247525,17.4210633 L17.8217822,17.4210633 C16.1101162,17.4210633 14.7223418,18.8088377 14.7223418,20.5201162 C14.7223418,22.2321696 16.1101162,23.6195566 17.8217822,23.6195566 L35.6435644,23.6195566 C37.3556177,23.6195566 38.7430047,22.2321696 38.7430047,20.5201162 C38.7430047,18.8088377 37.3556177,17.4210633 35.6435644,17.4210633 L32.1419716,17.4210633 C31.5034869,17.4210633 30.9862678,16.9038442 30.9862678,16.2657469 L30.9862678,16.2521868 C30.9862678,15.6137021 31.5034869,15.096483 32.1419716,15.096483 L32.544124,15.096483 C34.2561774,15.096483 35.6435644,13.709096 35.6435644,11.9970426 C35.6435644,10.2853767 34.2561774,8.89760224 32.544124,8.89760224 L21.9734826,8.89760224 C21.3349978,8.89760224 20.8177787,8.38038313 20.8177787,7.74189841 C20.8177787,7.10380112 21.3349978,6.58619458 21.9734826,6.58619458 L33.6095566,6.58619458 C35.32161,6.58619458 36.708997,5.19842015 36.708997,3.4867542 C36.708997,1.77508825 35.32161,0.387313818 33.6095566,0.387313818 L16.1752045,0.387313818 Z"/>
    <path fill="url(#a)" d="M16.1752045,0.387313818 C14.463926,0.387313818 13.0761515,1.77508825 13.0761515,3.4867542 C13.0761515,5.19842015 14.463926,6.58619458 16.1752045,6.58619458 L18.4273353,6.58619458 C19.0654326,6.58619458 19.5830392,7.10380112 19.5830392,7.74189841 C19.5830392,8.38038313 19.0654326,8.89760224 18.4273353,8.89760224 L3.09944038,8.89760224 C1.38777443,8.89760224 0,10.2853767 0,11.9970426 C0,13.709096 1.38777443,15.096483 3.09944038,15.096483 L20.8247525,15.096483 C21.4628498,15.096483 21.9800689,15.6137021 21.9800689,16.2521868 L21.9800689,16.2657469 C21.9800689,16.9038442 21.4628498,17.4210633 20.8247525,17.4210633 L17.8217822,17.4210633 C16.1101162,17.4210633 14.7223418,18.8088377 14.7223418,20.5201162 C14.7223418,22.2321696 16.1101162,23.6195566 17.8217822,23.6195566 L35.6435644,23.6195566 C37.3556177,23.6195566 38.7430047,22.2321696 38.7430047,20.5201162 C38.7430047,18.8088377 37.3556177,17.4210633 35.6435644,17.4210633 L32.1419716,17.4210633 C31.5034869,17.4210633 30.9862678,16.9038442 30.9862678,16.2657469 L30.9862678,16.2521868 C30.9862678,15.6137021 31.5034869,15.096483 32.1419716,15.096483 L32.544124,15.096483 C34.2561774,15.096483 35.6435644,13.709096 35.6435644,11.9970426 C35.6435644,10.2853767 34.2561774,8.89760224 32.544124,8.89760224 L21.9734826,8.89760224 C21.3349978,8.89760224 20.8177787,8.38038313 20.8177787,7.74189841 C20.8177787,7.10380112 21.3349978,6.58619458 21.9734826,6.58619458 L33.6095566,6.58619458 C35.32161,6.58619458 36.708997,5.19842015 36.708997,3.4867542 C36.708997,1.77508825 35.32161,0.387313818 33.6095566,0.387313818 L16.1752045,0.387313818 Z"/>
    <polygon points="22.598 27.351 29.512 34.265 31.704 32.074 24.79 25.16"/>
    <polygon fill="url(#b)" points="22.598 27.351 29.512 34.265 31.704 32.074 24.79 25.16"/>
    <path fill="#202225" d="M23.2747826 25.8366251C19.4923031 29.6191046 13.3596728 29.6191046 9.57719328 25.8366251 5.79471373 22.0537581 5.79471373 15.9211279 9.57719328 12.1390357 13.3596728 8.35616875 19.4923031 8.35616875 23.2747826 12.1390357 27.0572622 15.9211279 27.0572622 22.0537581 23.2747826 25.8366251M26.0143005 9.39913043C20.7189066 4.10373655 12.1330693 4.10373655 6.83767542 9.39913043 1.5418941 14.6949118 1.5418941 23.2803616 6.83767542 28.5761429 12.1330693 33.8715368 20.7189066 33.8715368 26.0143005 28.5761429 31.3100818 23.2803616 31.3100818 14.6949118 26.0143005 9.39913043M36.3283857 35.0547482L32.4932157 38.8899182C32.1902454 39.1928885 31.6997589 39.1928885 31.3971761 38.8899182L25.9181403 33.4112699C25.6155575 33.108687 25.6155575 32.6178132 25.9181403 32.3152303L29.7533104 28.4796728C30.0562807 28.1774774 30.5467671 28.1774774 30.84935 28.4796728L36.3283857 33.959096C36.6309686 34.2616789 36.6309686 34.7521653 36.3283857 35.0547482"/>
  </g>
</svg>
