<svg xmlns="http://www.w3.org/2000/svg" width="40" height="40" viewBox="0 0 40 40">
  <defs>
    <linearGradient id="a" x1="23.289%" x2="76.333%" y1="23.398%" y2="76.687%">
      <stop stop-color="#738EF5" offset="0%"/>
      <stop stop-color="#B3AEFF" offset="100%"/>
    </linearGradient>
  </defs>
  <g fill="none" fill-rule="evenodd">
    <path fill="url(#a)" d="M5.88934544,24.9187769 C5.73798376,25.0705686 5.49288103,25.0705686 5.34108935,24.9187769 L0.734018156,20.3117057 C0.463115146,20.0412327 0,20.2330148 0,20.6161491 L0,38.2704252 C0,38.5077879 0.192212136,38.70043 0.430004778,38.70043 L18.0842809,38.70043 C18.4674152,38.70043 18.6591973,38.2373149 18.3887243,37.9668419 L13.7812231,33.3589107 C13.6298614,33.207979 13.6298614,32.9624462 13.7812231,32.8110846 L25.8819876,20.7103201 L17.9901099,12.8184424 L5.88934544,24.9187769 Z"/>
    <path fill="#202225" d="M38.343096,0 L20.6888199,0 C20.3056856,0 20.1134735,0.463115146 20.3848065,0.734018156 L24.9918777,5.34108935 C25.1432394,5.49245103 25.1432394,5.73798376 24.9918777,5.88934544 L18.0602007,12.8210225 L25.9520784,20.7129001 L32.8837554,13.7812231 C33.0351171,13.6298614 33.2806498,13.6298614 33.4320115,13.7812231 L38.0390827,18.3887243 C38.3099857,18.6596273 38.7731008,18.4674152 38.7731008,18.0842809 L38.7731008,0.430004778 C38.7731008,0.192212136 38.5804587,0 38.343096,0"/>
  </g>
</svg>
