<svg width="40" height="40" viewBox="0 0 40 40" fill="none" xmlns="http://www.w3.org/2000/svg">
<g clip-path="url(#clip0)">
<circle cx="19.9999" cy="20" r="20" fill="#202225"/>
<path d="M14.814 16.982C12.539 19.674 12.656 23.591 14.931 26.153L12.034 29.579L13.561 30.87L16.463 27.437C17.569 28.127 18.846 28.513 20.161 28.513C22.231 28.513 24.183 27.607 25.516 26.027C28.069 23.01 28.771 14.945 29 11C25.765 11.876 17.032 14.356 14.814 16.982ZM16.935 25.331C14.826 23.548 14.56 20.382 16.342 18.272C17.592 16.793 22.904 14.845 26.764 13.698L16.935 25.331Z" fill="#7289DA"/>
</g>
<defs>
<clipPath id="clip0">
<rect width="40" height="40" fill="white"/>
</clipPath>
</defs>
</svg>
