<svg xmlns="http://www.w3.org/2000/svg" width="170" height="104" viewBox="0 0 170 104">
  <defs>
    <linearGradient id="a" x1="14.781%" x2="54.393%" y1="-5.324%" y2="117.346%">
      <stop stop-color="#738EF5" offset="0%"/>
      <stop stop-color="#B3AEFF" offset="100%"/>
      <stop stop-color="#B3AEFF" offset="100%"/>
    </linearGradient>
    <linearGradient id="b" x1="14.781%" x2="92.829%" y1="-5.324%" y2="96.364%">
      <stop stop-color="#738EF5" offset="0%"/>
      <stop stop-color="#B3AEFF" offset="100%"/>
      <stop stop-color="#B3AEFF" offset="100%"/>
    </linearGradient>
  </defs>
  <g fill="none" fill-rule="evenodd">
    <path fill="url(#a)" d="M84.6929762,6.58148861 C81.5782421,6.58148861 79.0519636,9.10908354 79.0519636,12.2251342 C79.0519636,15.3398684 81.5782421,17.8661468 84.6929762,17.8661468 L85.6342421,17.8661468 C88.7502927,17.8661468 91.2765712,20.3924253 91.2765712,23.5084759 C91.2765712,26.6245266 88.7502927,29.1494886 85.6342421,29.1494886 L84.6929762,29.1494886 C81.5782421,29.1494886 79.0519636,31.6757671 79.0519636,34.7918177 C79.0519636,37.9078684 81.5782421,40.4328304 84.6929762,40.4328304 L85.6342421,40.4328304 C88.7502927,40.4328304 91.2765712,42.9604253 91.2765712,46.0764759 C91.2765712,49.1925266 88.7502927,51.7188051 85.6342421,51.7188051 L84.6929762,51.7188051 C81.5782421,51.7188051 79.0519636,54.2437671 79.0519636,57.3598177 C79.0519636,60.4771848 81.5782421,63.0021468 84.6929762,63.0021468 L85.6342421,63.0021468 C88.7502927,63.0021468 91.2765712,65.5284253 91.2765712,68.6431595 C91.2765712,71.7592101 88.7502927,74.2854886 85.6342421,74.2854886 L84.6929762,74.2854886 C81.5782421,74.2854886 79.0519636,76.8130835 79.0519636,79.9278177 C79.0519636,83.0438684 81.5782421,85.5701468 84.6929762,85.5701468 L85.6342421,85.5701468 L125.152533,85.5701468 L126.093799,85.5701468 C129.208533,85.5701468 131.736128,83.0438684 131.736128,79.9278177 C131.736128,76.8130835 129.208533,74.2854886 126.093799,74.2854886 L125.152533,74.2854886 C122.036482,74.2854886 119.51152,71.7592101 119.51152,68.6431595 C119.51152,65.5284253 122.036482,63.0021468 125.152533,63.0021468 L132.776521,63.0021468 C135.892571,63.0021468 138.417533,60.4771848 138.417533,57.3598177 C138.417533,54.2437671 135.892571,51.7188051 132.776521,51.7188051 L129.391913,51.7188051 C126.274546,51.7188051 123.749584,49.1925266 123.749584,46.0764759 C123.749584,42.9604253 126.274546,40.4328304 129.391913,40.4328304 L144.248115,40.4328304 C147.364166,40.4328304 149.890445,37.9078684 149.890445,34.7918177 C149.890445,31.6757671 147.364166,29.1494886 144.248115,29.1494886 L121.868369,29.1494886 C118.753634,29.1494886 116.227356,26.6245266 116.227356,23.5084759 C116.227356,20.3924253 118.753634,17.8661468 121.868369,17.8661468 L124.69085,17.8661468 C127.805584,17.8661468 130.330546,15.3398684 130.330546,12.2251342 C130.330546,9.10908354 127.805584,6.58148861 124.69085,6.58148861 L84.6929762,6.58148861 Z"/>
    <path fill="url(#b)" d="M162.350698 29.1494886C159.234647 29.1494886 156.708369 31.6757671 156.708369 34.7918177 156.708369 37.9078684 159.234647 40.4328304 162.350698 40.4328304L164.077888 40.4328304C167.024115 40.4328304 169.65571 38.2804253 169.936115 35.3460456 170.257331 31.9811848 167.619153 29.1494886 164.320115 29.1494886L162.350698 29.1494886zM144.613628 74.2854886C141.496261 74.2854886 138.971299 76.8130835 138.971299 79.9278177 138.971299 83.0438684 141.496261 85.5701468 144.613628 85.5701468L145.023046 85.5701468C147.971907 85.5701468 150.602185 83.4151089 150.88259 80.4807291 151.203805 77.1171848 148.564312 74.2854886 145.26659 74.2854886L144.613628 74.2854886z"/>
    <path fill="url(#a)" d="M84.6981035,0.00052658228 C79.4915212,0.00052658228 75.2722807,4.22108354 75.2722807,9.42634937 L75.2722807,82.7266025 C75.2722807,87.9305519 79.4915212,92.1524253 84.6981035,92.1524253 L97.4413946,92.1524253 C102.647977,92.1524253 106.865901,87.9305519 106.865901,82.7266025 L106.865901,9.42634937 C106.865901,4.22108354 102.647977,0.00052658228 97.4413946,0.00052658228 L84.6981035,0.00052658228 Z"/>
    <path fill="#202225" d="M89.5538503,97.6852253 L89.5538503,97.6983899 L89.5538503,97.6852253 Z M60.3969896,49.3673519 C57.5231668,49.3673519 55.5116225,45.6891747 58.8132934,42.7850734 L82.4910655,42.7850734 C84.4736478,42.7850734 86.0810402,44.3937823 86.0810402,46.3750481 L86.0810402,95.2919089 C86.0810402,96.2502886 86.8590655,97.0269975 87.8174453,97.0269975 C88.7771415,97.0269975 89.5538503,96.2502886 89.5538503,95.2919089 L89.5538503,92.152162 L96.1361288,92.152162 L96.1361288,95.2919089 C96.1361288,99.8850228 92.4118756,103.609276 87.8174453,103.609276 C83.2230149,103.609276 79.4987617,99.8850228 79.4987617,95.2919089 L79.4987617,50.4968709 C79.4987617,49.8741873 78.9932427,49.3673519 78.3692427,49.3673519 L60.3969896,49.3673519 Z"/>
    <path fill="#202225" d="M61.7184781,55.2912709 L62.7700043,55.2912709 C66.1482283,55.2912709 68.9117541,52.5096 68.9117541,49.1091949 L68.9117541,43.0429671 C68.9117541,39.642562 66.1482283,36.8608911 62.7700043,36.8608911 L61.7184781,36.8608911 L7.05350397,36.8608911 C3.6622013,36.8608911 0.911754119,39.6293975 0.911754119,43.0429671 L0.911754119,49.1091949 C0.911754119,52.5227646 3.6622013,55.2912709 7.05350397,55.2912709 L8.00563214,55.2912709 L61.7184781,55.2912709 Z"/>
  </g>
</svg>
