<svg width="401" height="336" viewBox="0 0 401 336" fill="none" xmlns="http://www.w3.org/2000/svg">
<path fill-rule="evenodd" clip-rule="evenodd" d="M157.123 79.0311C156.887 79.0311 156.708 78.8174 156.749 78.5845L157.153 76.3059H154.886C154.649 76.3059 154.47 76.0929 154.511 75.8603L154.616 75.2581C154.648 75.0761 154.806 74.9433 154.991 74.9433H157.391L158.111 70.8556H155.844C155.608 70.8556 155.429 70.6426 155.47 70.4099L155.575 69.8078C155.607 69.6258 155.765 69.493 155.949 69.493H158.349L158.776 67.0817C158.809 66.9001 158.966 66.7678 159.151 66.7678H159.738C159.975 66.7678 160.154 66.9815 160.113 67.2144L159.709 69.493H163.788L164.215 67.0817C164.248 66.9001 164.405 66.7678 164.59 66.7678H165.177C165.414 66.7678 165.593 66.9815 165.552 67.2144L165.148 69.493H167.415C167.651 69.493 167.83 69.706 167.79 69.9386L167.685 70.5408C167.653 70.7228 167.495 70.8556 167.31 70.8556H164.91L164.189 74.9433H166.457C166.693 74.9433 166.872 75.1563 166.831 75.389L166.726 75.9911C166.694 76.1731 166.536 76.3059 166.351 76.3059H163.951L163.524 78.7171C163.492 78.8987 163.334 79.0311 163.15 79.0311H162.562C162.326 79.0311 162.147 78.8174 162.188 78.5845L162.592 76.3059H158.512L158.085 78.7171C158.053 78.8987 157.895 79.0311 157.711 79.0311H157.123ZM159.471 70.8556L158.751 74.9433H162.83L163.551 70.8556H159.471Z" fill="#B9BBBE"/>
<rect x="76.9066" y="48.373" width="322.757" height="241.892" rx="6.08365" fill="#292841"/>
<path d="M59.9309 54.4567C59.9309 51.0968 62.6547 48.373 66.0146 48.373H159.58V290.265H66.0146C62.6547 290.265 59.9309 287.542 59.9309 284.182V54.4567Z" fill="#1C1B29"/>
<rect x="94.0692" y="100.34" width="51.0661" height="7.16718" rx="3.58359" fill="#32313E"/>
<rect x="94.0692" y="112.883" width="43.899" height="7.16718" rx="3.58359" fill="#32313E"/>
<rect x="94.0692" y="125.426" width="29.5646" height="7.16718" rx="3.58359" fill="#32313E"/>
<rect x="94.0692" y="137.968" width="58.2333" height="7.16718" rx="3.58359" fill="#32313E"/>
<rect x="94.0692" y="150.511" width="51.0661" height="7.16718" rx="3.58359" fill="#32313E"/>
<rect x="94.0692" y="163.053" width="36.7318" height="7.16718" rx="3.58359" fill="#32313E"/>
<rect x="94.0692" y="175.596" width="58.2333" height="7.16718" rx="3.58359" fill="#32313E"/>
<rect x="94.0692" y="188.138" width="43.899" height="7.16718" rx="3.58359" fill="#32313E"/>
<rect x="94.0692" y="200.681" width="51.0661" height="7.16718" rx="3.58359" fill="#32313E"/>
<rect x="94.0692" y="213.224" width="58.2333" height="7.16718" rx="3.58359" fill="#32313E"/>
<rect x="94.0692" y="225.766" width="36.7318" height="7.16718" rx="3.58359" fill="#32313E"/>
<rect x="94.0692" y="238.309" width="36.7318" height="7.16718" rx="3.58359" fill="#32313E"/>
<rect x="94.0692" y="250.851" width="58.2333" height="7.16718" rx="3.58359" fill="#32313E"/>
<rect x="94.0692" y="87.798" width="58.2333" height="7.16718" rx="3.58359" fill="#32313E"/>
<rect x="168.429" y="58.2333" width="58.2333" height="7.16718" rx="3.58359" fill="white" fill-opacity="0.1"/>
<rect x="198.889" y="86.0061" width="29.5646" height="7.16718" rx="3.58359" fill="white" fill-opacity="0.05"/>
<rect x="198.889" y="120.946" width="29.5646" height="7.16718" rx="3.58359" fill="white" fill-opacity="0.05"/>
<rect x="198.889" y="155.886" width="29.5646" height="7.16718" rx="3.58359" fill="white" fill-opacity="0.05"/>
<rect x="198.889" y="190.826" width="29.5646" height="7.16718" rx="3.58359" fill="white" fill-opacity="0.05"/>
<rect x="198.889" y="96.757" width="51.0661" height="7.16718" rx="3.58359" fill="white" fill-opacity="0.05"/>
<rect x="198.889" y="131.697" width="172.908" height="7.16718" rx="3.58359" fill="white" fill-opacity="0.05"/>
<rect x="198.889" y="166.637" width="108.404" height="7.16718" rx="3.58359" fill="white" fill-opacity="0.05"/>
<rect x="198.889" y="201.577" width="115.571" height="7.16718" rx="3.58359" fill="white" fill-opacity="0.05"/>
<rect x="91.3816" y="58.2333" width="58.2333" height="7.16718" rx="3.58359" fill="white" fill-opacity="0.1"/>
<path d="M59.9003 54.4627C59.9003 51.1028 62.6241 48.379 65.984 48.379H86.7214V290.271H65.984C62.6241 290.271 59.9003 287.548 59.9003 284.188V54.4627Z" fill="#0E0E0E"/>
<path d="M102.581 211.841C102.581 211.841 103.618 205.749 111.396 206.528L111.655 215.487L102.581 211.841Z" fill="#3B375E"/>
<path d="M85.8978 293.968C85.9604 293.866 85.9847 293.745 85.9663 293.627C85.9479 293.509 85.888 293.401 85.7974 293.324C85.7069 293.246 85.5916 293.203 85.4723 293.203C85.353 293.203 85.2376 293.245 85.1468 293.323L79.5055 298.429C79.2015 298.053 78.8797 297.686 78.6114 297.292C76.8482 294.934 76.0728 291.981 76.4501 289.059C76.8275 286.138 78.3279 283.479 80.632 281.649L100.122 266.231L126.943 277.537L124.583 302.425C124.447 303.888 123.856 305.27 122.894 306.378C121.931 307.486 120.646 308.262 119.219 308.598C117.699 308.956 115.866 309.315 113.854 309.592L115.589 300.275C115.606 300.181 115.589 300.083 115.541 300.001C115.492 299.918 115.415 299.857 115.324 299.827C115.233 299.797 115.134 299.802 115.046 299.84C114.959 299.878 114.888 299.946 114.847 300.033L110.037 310.022C101.239 310.64 90.0104 309.243 81.5618 300.741L85.8978 293.968Z" fill="#CECFD6"/>
<path d="M52.2106 201.923C38.514 194.398 25.7293 184.686 16.9409 171.705C14.4734 168.067 12.2383 164.188 8.89459 161.339C7.24063 159.915 4.42442 158.902 3.11913 160.658C2.6315 161.463 2.45052 162.418 2.60953 163.346C2.93138 166.858 4.54064 170.119 6.31083 173.201C9.94242 179.461 14.336 185.245 19.3906 190.42C16.5833 186.836 12.578 184.041 8.88565 181.416C7.62254 180.391 6.13255 179.685 4.54064 179.356C3.74571 179.202 2.92305 179.291 2.17883 179.61C1.43461 179.929 0.802996 180.465 0.365504 181.147C-0.367605 182.581 0.133052 184.31 0.723116 185.806C3.15101 191.879 6.82497 197.373 11.507 201.932C16.189 206.491 21.7745 210.013 27.9018 212.271C24.4866 211.312 21.1429 210.121 17.7277 209.162C16.1899 208.723 14.2767 208.392 13.2038 209.574C12.131 210.757 12.6764 212.764 13.5793 214.143C16.0648 217.969 20.374 219.653 24.5402 221.499C37.8077 227.385 45.997 226.507 60.0781 226.453C70.6277 226.408 88.9375 224.724 101.534 221.266C105.164 220.271 107.346 220.37 109.929 218.811C109.929 216.347 116.045 211.124 111.405 208.956C111.405 208.956 96.1613 209.852 95.312 209.906C89.6706 210.139 67.8026 210.47 52.2106 201.923Z" fill="#DBDBDB"/>
<path d="M109.929 218.856C109.929 216.392 116.045 211.169 111.405 209.001C111.405 209.001 96.1613 209.897 95.312 209.951C93.3988 210.004 89.5723 210.076 84.7803 209.816C74.7134 214.439 63.3771 216.535 52.4162 217.154C47.3076 217.456 42.2457 218.303 37.316 219.68C35.0898 220.298 32.5597 221.185 31.469 223.264L31.9517 224.249C41.3033 227.044 48.7954 226.489 60.087 226.444C70.6366 226.399 88.9465 224.715 101.543 221.257C105.164 220.316 107.355 220.433 109.929 218.856Z" fill="#D6D6D6"/>
<path d="M134.176 225.889C146.004 243.95 166.656 256.985 188.712 266.132C193.418 268.242 198.372 269.747 203.454 270.612C208.631 271.355 214.183 270.925 218.653 268.623C220.376 267.832 221.839 266.568 222.873 264.977C223.334 264.232 223.57 263.369 223.551 262.492C223.531 261.616 223.259 260.764 222.766 260.04C221.684 258.562 219.628 257.774 217.616 257.352C215.604 256.931 214.12 256.958 212.091 256.573L211.385 256.439C216.551 256.489 221.69 255.665 226.583 254.002C231.357 252.291 235.658 249.522 238.411 245.822C239.949 243.762 241.004 241.343 240.468 238.924C240.109 237.623 239.324 236.481 238.239 235.681C237.154 234.882 235.832 234.471 234.486 234.516C231.393 234.668 229.31 237.078 227.021 238.825C224.69 240.515 222.016 241.668 219.189 242.203C225.528 239.918 230.571 235.233 232.6 229.723C233.575 227.107 233.575 223.712 230.812 222.233C229.88 221.807 228.868 221.587 227.844 221.587C226.82 221.587 225.807 221.807 224.876 222.233C223.126 223.07 221.533 224.2 220.164 225.575C213.906 231.291 207.379 237.499 198.466 239.703C190.026 241.8 180.898 239.874 172.834 236.935C159.155 231.963 144.859 224.688 137.35 213.928C136.205 216.473 137.287 218.22 135.561 220.54C134.551 221.92 133.407 223.362 133.371 225.02C133.354 225.21 133.405 225.4 133.514 225.557C133.764 225.718 134.006 226.005 134.176 225.889Z" fill="white"/>
<path opacity="0.52" d="M134.176 225.889C134.006 226.005 133.764 225.718 133.63 225.566C133.521 225.409 133.471 225.219 133.487 225.029C133.487 223.407 134.667 221.965 135.678 220.549C137.206 218.462 136.5 216.84 137.162 214.69L138.127 214.86C141.256 218.892 145.008 222.397 149.24 225.244C149.24 237.947 157.85 245.016 165.378 254.396C152.691 246.736 141.668 237.329 134.176 225.889Z" fill="#D1D8E3"/>
<path d="M188.149 189.739C188.149 189.739 138.977 165.093 128.078 220.943" stroke="white" stroke-width="17.72" stroke-miterlimit="10"/>
<path d="M136.92 250.633C136.92 250.633 150.59 228.657 137.189 212.782L137.85 212.889C137.85 212.889 131.288 220.11 130.063 220.11L128.91 208.401L123.85 209.099L111.405 206.528C111.405 206.528 111.405 219.25 101.57 217.843C101.57 217.843 99.4603 220.137 101.704 232.447C101.865 233.348 102.053 234.307 102.268 235.322C103.269 240.053 104.825 246.01 107.212 253.518L136.92 250.633Z" fill="#4A4285"/>
<path d="M130.045 219.877V220.11L135.597 210.64L137.385 211.536L139.585 212.593C152.995 228.469 136.903 250.669 136.903 250.669H136.491L129.017 239.838L130.045 219.877Z" fill="#433B79"/>
<path d="M129.035 239.838L108.588 253.518L136.92 250.642L129.035 239.838Z" fill="#3B375E"/>
<path d="M118.45 223.855C120.005 223.855 121.266 222.591 121.266 221.033C121.266 219.474 120.005 218.211 118.45 218.211C116.894 218.211 115.633 219.474 115.633 221.033C115.633 222.591 116.894 223.855 118.45 223.855Z" fill="#746F95"/>
<path d="M160.389 331.604H137.752C137.435 331.606 137.122 331.544 136.829 331.424C136.536 331.303 136.27 331.126 136.046 330.902C135.821 330.678 135.643 330.412 135.522 330.119C135.4 329.826 135.338 329.512 135.338 329.195V294.487L142.83 291.325L143.679 314.17C143.738 315.958 144.364 317.681 145.467 319.088C146.57 320.495 148.092 321.512 149.812 321.992C153.567 323.013 158.341 324.993 161.676 328.818C161.88 329.066 162.01 329.366 162.051 329.684C162.092 330.003 162.043 330.326 161.908 330.618C161.774 330.909 161.559 331.156 161.291 331.331C161.022 331.505 160.709 331.6 160.389 331.604Z" fill="#3B3346"/>
<path d="M146.29 289.255L148.033 292.042C148.285 292.469 148.426 292.953 148.441 293.449C148.457 293.945 148.347 294.437 148.123 294.879C147.898 295.322 147.566 295.7 147.156 295.979C146.747 296.258 146.273 296.429 145.78 296.476L132.54 297.865C132.088 297.918 131.63 297.858 131.206 297.691C130.783 297.524 130.407 297.255 130.113 296.908C129.818 296.56 129.614 296.145 129.518 295.7C129.422 295.254 129.437 294.791 129.562 294.353L129.732 291.665L146.29 289.255Z" fill="#9294A7"/>
<g style="mix-blend-mode:multiply" opacity="0.32">
<path d="M102.223 235.278V235.322C103.171 239.802 104.619 245.374 106.791 252.344L114.096 252.873L119.692 252.335L118.307 252.138C118.307 252.138 111.163 235.313 102.223 235.278Z" fill="#3B375E"/>
</g>
<path d="M101.847 298.259L94.9365 316.428C94.7226 317.004 94.6291 317.617 94.662 318.231C94.6949 318.844 94.8533 319.445 95.1275 319.994C95.4017 320.544 95.7858 321.031 96.2559 321.425C96.726 321.82 97.272 322.113 97.86 322.287C101.329 323.255 105.853 325.118 108.436 328.558C108.643 328.841 108.767 329.176 108.795 329.525C108.823 329.875 108.754 330.225 108.596 330.538C108.438 330.85 108.196 331.113 107.898 331.296C107.6 331.48 107.257 331.577 106.908 331.577H85.0664C84.6286 331.579 84.1971 331.473 83.8096 331.268C83.4221 331.064 83.0904 330.768 82.8435 330.406C82.5966 330.043 82.4419 329.626 82.393 329.19C82.3442 328.754 82.4026 328.312 82.5631 327.904L94.5432 297.014L101.847 298.259Z" fill="#3B3346"/>
<path d="M106.72 295.813V297.793C106.721 298.279 106.611 298.758 106.398 299.194C106.184 299.63 105.874 300.011 105.49 300.307C105.106 300.603 104.659 300.807 104.184 300.903C103.709 300.998 103.218 300.982 102.75 300.857L93.7474 298.456C93.211 298.312 92.7219 298.03 92.3291 297.636C91.9363 297.243 91.6536 296.753 91.5096 296.215C91.3656 295.678 91.3652 295.112 91.5084 294.574C91.6517 294.037 91.9336 293.546 92.3259 293.153L93.3183 292.149L106.72 295.813Z" fill="#B5B6C6"/>
<path d="M136.777 253.518C137.135 254.557 165.091 289.524 138.708 293.923C118.45 297.31 112.066 267.189 121.606 254.584L136.777 253.518Z" fill="#9294A7"/>
<path d="M127.435 254.297C127.435 254.297 131.091 299.478 100.614 295.813C100.614 295.813 79.8988 294.595 96.957 271.391L101.785 256.976L127.435 254.297Z" fill="#B5B6C6"/>
<path d="M90.9759 259.547C92.4958 255.731 99.0222 253.76 101.937 252.909L102.965 252.452C104.194 251.913 105.513 251.609 106.854 251.556L137.126 250.427C137.616 250.409 138.095 250.57 138.475 250.88C138.855 251.19 139.109 251.627 139.191 252.111L139.504 253.903C139.553 254.185 139.541 254.474 139.47 254.751C139.398 255.028 139.269 255.287 139.091 255.51C138.913 255.734 138.69 255.917 138.436 256.048C138.182 256.178 137.903 256.254 137.618 256.268L106.523 257.962C106.961 260.49 106.669 263.092 105.683 265.46C103.43 271.095 98.316 274.339 94.2481 272.717C90.1802 271.095 88.723 265.174 90.9759 259.547Z" fill="#F99300"/>
<path d="M90.9759 259.547C92.4958 255.731 99.0222 253.76 101.937 252.909L102.026 252.828C102.644 255.154 102.494 257.619 101.597 259.852C99.657 264.851 94.8471 267.637 90.8686 266.079C90.5596 265.952 90.2607 265.803 89.9746 265.631C89.8559 263.554 90.1979 261.476 90.9759 259.547Z" fill="#ED8000"/>
<path d="M113.515 279.651C113.515 279.651 102.241 290.949 95.1958 281.067C95.1958 281.067 96.6262 299.424 113.515 279.651Z" fill="#A9ABBF"/>
<path d="M104.127 278.307C104.789 277.062 98.9954 281.981 95.7679 279.624C95.7322 279.624 100.828 284.552 104.127 278.307Z" fill="#A9ABBF"/>
<path d="M108.812 209.171C108.812 209.243 111.637 208.92 109.313 214.403L110.618 214.179L111.396 209.762L111.279 208.284L108.812 209.171Z" fill="#3B375E"/>
<path opacity="0.32" d="M191.51 182.097C191.403 182.034 186.906 180.726 182.57 179.284C179.672 184.396 175.884 188.948 171.385 192.723C176.75 193.959 182.883 195.804 184.018 196.396L187.755 189.229L191.51 182.097Z" fill="#C9C9C9"/>
<path d="M196.49 162.101C195.31 165.729 194.702 179.463 194.702 179.463C194.702 179.463 202.283 168.014 203.463 164.376C204.643 160.739 204.036 157.29 202.113 156.663C200.191 156.035 197.652 158.463 196.49 162.101Z" fill="#B6B6B8"/>
<path d="M206.445 210.853C214.994 207.383 218.564 196.257 214.419 186.003C210.274 175.749 199.984 170.249 191.435 173.719C182.886 177.189 179.316 188.314 183.461 198.568C187.606 208.823 197.896 214.323 206.445 210.853Z" fill="white"/>
<path d="M178.073 160.515C180.666 164.851 196.177 175.978 196.177 175.978C196.177 175.978 193.674 157.03 191.072 152.685C188.47 148.34 183.455 146.584 179.87 148.752C176.285 150.92 175.471 156.179 178.073 160.515Z" fill="white"/>
<path d="M177.662 173.586C181.238 175.091 195.757 175.521 195.757 175.521C195.757 175.521 185.261 165.496 181.658 163.991C178.055 162.486 174.237 163.409 173.129 166.061C172.02 168.712 174.059 172.054 177.662 173.586Z" fill="white"/>
<path d="M211.116 202.828C211.116 202.828 195.515 216.034 200.182 197.301L211.116 202.828Z" fill="#333333"/>
<path d="M200.182 197.3C191.671 191.871 187.988 182.402 191.957 176.139C192.86 174.739 194.087 173.577 195.533 172.753C203.034 172.117 210.893 177.349 214.389 185.994C216.343 190.635 216.659 195.806 215.283 200.651C210.732 201.565 205.189 200.49 200.182 197.3Z" fill="#00E9E5"/>
<path d="M200.182 197.301C200.182 197.301 207.433 192.391 216.141 194.756C216.141 194.756 222.032 206.036 236.087 217.019C237.654 218.244 238.748 219.976 239.18 221.92L239.252 222.215L200.182 197.301Z" fill="#FBCC00"/>
<path d="M199.324 202.685C200.164 202.637 201.006 202.703 201.827 202.882C203.75 203.234 205.46 204.323 206.593 205.919C203.204 207.783 199.136 208.786 199.324 202.685Z" fill="#FF70AA"/>
<path d="M201.026 188.675C201.075 186.726 200.011 185.118 198.648 185.083C197.286 185.049 196.142 186.601 196.093 188.55C196.043 190.498 197.108 192.106 198.47 192.141C199.833 192.175 200.977 190.624 201.026 188.675Z" fill="black"/>
<path d="M227.526 212.746C227.736 212.416 227.372 211.809 226.715 211.388C226.057 210.968 225.353 210.895 225.144 211.225C224.934 211.554 225.297 212.162 225.955 212.582C226.613 213.002 227.317 213.076 227.526 212.746Z" fill="#C19D00"/>
<path d="M41.044 223.738L39.3364 207.523L39.0146 204.459L36.4666 180.117C37.819 179.351 38.9214 178.21 39.6405 176.83C40.3596 175.45 40.6649 173.891 40.5193 172.342C40.3737 170.792 39.7835 169.317 38.8201 168.096C37.8566 166.875 36.561 165.96 35.0898 165.46L36.0464 174.518L32.9083 176.802L29.3322 175.226L28.4113 166.195C27.0715 166.99 25.9907 168.158 25.3 169.556C24.6092 170.955 24.3383 172.524 24.52 174.074C24.7018 175.623 25.3283 177.087 26.3237 178.287C27.3191 179.487 28.6406 180.372 30.1279 180.834L32.6848 205.131L33.0067 208.186L34.7053 224.392C33.3468 225.154 32.2379 226.294 31.513 227.674C30.7881 229.055 30.4784 230.616 30.6213 232.169C30.7641 233.723 31.3536 235.201 32.3181 236.425C33.2826 237.65 34.5808 238.567 36.0553 239.067L35.1076 230.01L38.2457 227.725L41.8218 229.302L42.7427 238.351C44.0774 237.555 45.1538 236.389 45.8421 234.994C46.5303 233.599 46.801 232.034 46.6214 230.488C46.4418 228.943 45.8196 227.482 44.83 226.283C43.8403 225.083 42.5254 224.197 41.044 223.729V223.738Z" fill="url(#paint0_linear)"/>
<path d="M24.9157 195.034C24.565 194.388 24.391 193.661 24.4114 192.926C24.4318 192.192 24.6459 191.475 25.0319 190.85C25.4592 190.306 26.0014 189.862 26.6196 189.553C27.2379 189.243 27.917 189.074 28.608 189.058C29.9049 189.048 31.1926 189.276 32.4077 189.73C33.712 190.126 34.9802 190.632 36.1984 191.244C36.6722 191.477 37.0924 191.728 37.5752 192.006C38.201 192.409 38.7911 192.902 39.4169 193.296C40.0428 193.69 40.749 194.192 41.4106 194.658C43.7619 196.324 46.0685 198.062 48.4735 199.657C49.6983 200.472 50.95 201.242 52.2374 201.95C55.4374 203.665 58.8009 205.055 62.2774 206.098C58.2607 207.096 54.1073 207.423 49.9844 207.066C41.8921 206.239 34.1988 203.132 27.7945 198.107C26.6197 197.309 25.6364 196.259 24.9157 195.034Z" fill="#BDBEC7"/>
<path d="M174.997 239.3C174.488 238.628 173.996 237.929 173.558 237.213C181.47 240.017 190.339 241.782 198.591 239.748L199.109 239.605C201.148 239.693 203.19 239.66 205.225 239.506C206.46 239.297 207.728 239.38 208.926 239.748C209.538 240.007 210.05 240.458 210.385 241.033C210.721 241.608 210.861 242.276 210.786 242.937C210.524 244.248 209.784 245.414 208.711 246.207C206.092 248.42 202.274 249.37 198.564 249.612C191.805 250.06 184.733 248.322 179.789 244.416C177.985 242.917 176.376 241.199 174.997 239.3Z" fill="#E3E3E3"/>
<path d="M101.534 217.843C111.369 219.25 111.369 206.528 111.369 206.528V216.795C111.7 224.679 107.051 229.508 101.633 232.447C100.904 228.862 100.548 225.211 100.569 221.552C100.73 218.247 101.534 217.843 101.534 217.843Z" fill="#3B375E"/>
<path d="M100.605 221.552C100.605 221.552 106.988 217.816 108.955 214.932L100.247 216.517L99.2099 220.934L100.605 221.552Z" fill="#D6D6D6"/>
<path d="M328.995 228.997C330.193 232.957 330.121 233.871 331.605 238.96C334.001 240.089 334.136 241.361 333.501 242.705C333.297 243.052 333.007 243.342 332.66 243.547L317.086 252.945L306.868 275.539L258.59 269.68L264.848 248.179L253.431 240.626C253.002 238.834 253.145 238.575 254.701 237.311L256.319 233.28C258.5 227.842 259.895 227.009 264.419 224.876L317.346 217.709C324.346 217.557 326.393 220.173 328.995 228.997Z" fill="#2A499A"/>
<path d="M259.573 158.867H259.645L281.325 154.208C295.629 151.072 302.379 155.104 309.934 164.063L310.47 164.744L321.923 178.675L324.212 181.425C328.11 187.311 326.277 192.176 316.89 192.284C307.236 192.161 297.65 190.653 288.424 187.804C279.483 185.116 266.216 181.3 255.916 172.43L255.46 172.045L255.228 171.821L254.62 171.284L254.388 171.051C248.433 165.138 252.018 160.551 259.573 158.867Z" fill="url(#paint1_linear)"/>
<path d="M254.379 171.024L254.611 171.257L255.219 171.794L255.452 172.018L255.908 172.403C266.207 181.273 279.492 185.098 288.415 187.777C300.037 191.217 310.086 192.364 316.881 192.257C323.675 192.149 326.501 189.569 326.036 185.985C322.379 180.404 307.797 172.681 291.088 167.404C274.378 162.128 259.269 160.372 252.644 162.36C250.642 164.6 250.874 167.575 254.379 171.024Z" fill="url(#paint2_linear)"/>
<path d="M316.961 187.643C317.936 184.534 305.58 177.895 289.371 172.807C273.162 167.718 259.242 166.105 258.268 169.223C257.293 172.341 269.658 178.97 285.858 184.059C302.057 189.148 315.995 190.743 316.961 187.643Z" fill="#643443"/>
<path d="M276.739 177.376L277.633 177.913L263.328 174.778C264.472 175.458 265.769 176.229 267.217 176.919L280.181 179.221H280.252L271.786 179.069L277.051 181.21L282.585 180.117L286.707 181.569L290.221 182.563L296.702 187.15L300.976 188.046L291.973 182.993H292.509L306.474 188.888L308.682 189.112L294.378 183.378C295.336 183.556 296.303 183.685 297.274 183.763L315.209 188.96C315.849 188.846 316.437 188.532 316.89 188.064L298.955 183.629C299.107 183.548 299.179 183.396 299.259 183.324C299.34 183.253 299.259 183.092 299.179 182.859L316.425 185.842C315.905 185.173 315.304 184.571 314.637 184.05L298.374 182.142L297.48 181.524H310.837L307.878 180.117L296.05 180.959L294.145 180.063L302.46 177.609L299.635 176.462L292.84 179.526L291.24 178.917L296.658 175.396L294.369 174.554L289.943 178.451L288.415 177.922L291.472 173.559L289.559 172.95L287.771 177.761L287.154 177.537H287.386L286.546 172.027L283.953 171.266L285.634 177.08L283.345 176.462L280.976 170.504L278.759 169.967L282.425 176.238L278.991 175.629L274.11 168.972L271.741 168.515L278.08 175.548C277.401 175.387 276.693 175.387 276.014 175.548L264.392 167.745C263.834 167.673 263.269 167.673 262.711 167.745L275.299 176.005L258.509 168.838L258.205 169.295C258.143 169.684 258.196 170.082 258.357 170.441L276.739 177.376Z" fill="#723C4C"/>
<path d="M281.691 203.455L269.801 212.701C269.384 213.023 269.055 213.445 268.844 213.928C268.63 214.409 268.538 214.935 268.576 215.46L268.96 221.113L264.606 223.64C264.309 223.786 264.059 224.013 263.882 224.294C263.706 224.579 263.613 224.908 263.614 225.244C263.614 225.244 267.718 246.745 284.177 242.051C300.636 237.356 320.904 217.449 320.904 217.449L319.116 213.776C318.724 213.043 318.193 212.395 317.551 211.868C316.908 211.346 316.17 210.954 315.379 210.712L307.896 208.499L305.535 204.826C305.029 204.03 304.359 203.352 303.569 202.838C302.78 202.323 301.889 201.984 300.958 201.843L296.988 201.153L281.691 203.455Z" fill="#DE6B73"/>
<path d="M297.042 201.153L292.313 201.923L289.184 217.745C292.921 218.354 291.696 219.805 291.168 222.332C290.641 224.858 289.032 230.44 289.032 230.44H302.531L300.109 234.023C308.066 229.239 316.005 224.034 320.922 217.395L319.134 213.722C318.742 212.989 318.211 212.341 317.569 211.814C316.926 211.292 316.188 210.9 315.397 210.658L307.914 208.445L305.553 204.772C305.047 203.976 304.377 203.298 303.587 202.784C302.797 202.269 301.907 201.93 300.976 201.789L297.042 201.153Z" fill="#CF5B67"/>
<path d="M297.498 204.136C298.972 204.209 300.398 204.686 301.619 205.516C303.685 206.815 303.908 206.582 300.243 209.341L297.498 204.136Z" fill="#AE4655"/>
<path d="M304.445 215.46L295.209 228.612L296.202 229.759C300.206 228.382 304.066 226.614 307.726 224.482C311.159 222.26 310.622 223.712 308.87 225.378C307.118 227.044 303.372 229.857 297.114 234.4C292.187 237.737 287.037 240.73 281.7 243.359C281.7 243.359 277.731 240.671 280.556 238.772C283.381 236.872 301.923 216.75 305.053 212.002L304.445 215.46Z" fill="#CF5B67"/>
<path d="M278.5 206.277L286.966 216.912L280.324 224.482L278.035 225.933C268.424 212.853 270.48 213.776 274.53 210.255L278.5 206.277Z" fill="#B74B56"/>
<path d="M280.332 224.482L300.243 209.341C298.338 202.613 298.106 192.973 299.483 182.043C299.715 181.273 294.601 179.06 288.039 177.071C281.477 175.082 275.979 174.16 275.746 175.002C274.539 186.389 271.938 204.306 280.332 224.482Z" fill="#F4B78C"/>
<g opacity="0.4">
<path opacity="0.4" d="M274.539 188.691C282.013 186.398 291.937 185.331 299.036 186.165C299.114 184.784 299.266 183.408 299.492 182.043C299.724 181.273 294.61 179.06 288.048 177.071C281.486 175.082 275.987 174.16 275.755 175.002C275.371 178.908 274.754 183.495 274.539 188.691Z" fill="#9A417B"/>
</g>
<path d="M280.404 160.855L279.34 159.064L283.077 158.374L280.404 160.855Z" fill="#F7CD96"/>
<path d="M277.114 197.677C277.65 197.578 277.963 196.853 277.802 196.064C277.641 195.276 277.087 194.72 276.551 194.828C276.014 194.935 275.701 195.661 275.862 196.449C276.023 197.238 276.578 197.784 277.114 197.677Z" fill="#4F3446"/>
<path d="M286.993 196.342C287.048 196.113 287.038 195.874 286.965 195.651C286.891 195.427 286.757 195.229 286.577 195.078C286.398 194.927 286.179 194.829 285.947 194.796C285.715 194.762 285.478 194.794 285.263 194.888C285.048 194.983 284.863 195.135 284.73 195.328C284.597 195.522 284.52 195.749 284.509 195.984C284.497 196.218 284.551 196.452 284.665 196.658C284.778 196.863 284.947 197.033 285.151 197.148C285.503 197.281 285.892 197.271 286.236 197.12C286.58 196.97 286.852 196.69 286.993 196.342Z" fill="#4F3446"/>
<path d="M290.399 155.274C291.24 154.584 293.153 154.736 293.153 154.736C293.153 154.736 291.32 156.349 290.399 155.274Z" fill="#F7D097"/>
<path d="M282.585 155.928C282.585 155.928 282.97 153.787 287.011 154.781L282.585 155.928Z" fill="#FFFBC9"/>
<path d="M317.033 180.054C317.857 180.485 318.604 181.051 319.241 181.73C319.241 181.73 318.347 183.414 314.887 183.522L313.519 182.527C313.519 182.527 316.872 181.533 317.024 180.081L317.033 180.054Z" fill="#C56B60"/>
<path d="M325.428 188.467C325.428 188.467 323.219 188.924 317.953 188.001L318.177 187.159C318.177 187.159 325.276 188.055 325.812 186.478C325.873 187.164 325.74 187.854 325.428 188.467Z" fill="#C56B60"/>
<path d="M294.673 169.653C294.375 170.954 293.862 172.196 293.153 173.326L296.962 174.473C296.962 174.473 299.331 173.165 299.787 171.257C297.346 170.343 294.673 169.653 294.673 169.653Z" fill="#CE7868"/>
<path d="M272.626 225.871C273.086 226.603 273.25 227.484 273.084 228.333C272.917 229.182 272.434 229.936 271.732 230.44C270.972 230.977 270.972 231.058 270.436 228.764C269.775 226.251 269.291 223.695 268.987 221.113C268.835 219.322 268.755 218.058 268.755 218.058C269.755 220.797 271.054 223.417 272.626 225.871Z" fill="#C1505B"/>
<path d="M292.313 231.183L292.92 230.413C296.202 226.363 303.756 216.267 307.949 208.472H308.101L314.44 210.381C310.238 216.114 301.315 225.297 296.202 229.732L295.442 230.413C290.632 234.498 289.559 234.417 292.313 231.183Z" fill="#BC4D58"/>
<path d="M283.685 208.786C281.897 210.318 281.486 210.067 280.86 209.682C279.072 208.634 278.115 207.164 278.804 206.546C279.492 205.928 281.629 206.018 283.918 206.018C285.67 206.098 285.446 207.272 283.685 208.786Z" fill="#331518"/>
<path d="M283.962 208.553L284.159 208.356L284.338 208.177L284.499 207.989L284.642 207.8C284.683 207.746 284.722 207.689 284.758 207.63L284.856 207.46C284.884 207.408 284.908 207.354 284.928 207.299C284.946 207.249 284.96 207.198 284.972 207.146C284.976 207.099 284.976 207.051 284.972 207.003C284.987 206.917 284.987 206.829 284.972 206.743L284.919 206.627C284.869 206.549 284.802 206.485 284.722 206.439L284.588 206.367L283.855 206.25H282.961C281.625 206.909 280.514 207.951 279.769 209.243C280.075 209.496 280.401 209.724 280.744 209.924C281.369 210.291 281.816 210.542 283.569 209.028L283.801 208.822L283.962 208.553Z" fill="#DE6B73"/>
<path d="M284.946 207.362C285.357 206.573 285.062 206.053 283.918 206.053C282.378 205.951 280.831 206.041 279.313 206.322C279.224 206.824 279.152 207.362 279.564 207.362H284.946Z" fill="white"/>
<path d="M271.401 203.07C271.605 203.392 271.884 203.66 272.215 203.849C272.548 204.036 272.923 204.134 273.305 204.136C275.138 207.505 278.196 207.809 281.396 205.032C285.366 207.63 286.966 207.397 290.337 204.575C292.473 205.032 294.074 204.575 294.914 203.5C296.443 201.968 296.595 198.376 293.233 197.614C293.77 198.832 293.841 199.908 291.445 200.597C290.727 200.815 289.978 200.918 289.228 200.902C286.483 200.902 284.427 199.522 281.37 201.126C280.514 200.616 279.554 200.309 278.562 200.23C277.57 200.151 276.573 200.301 275.648 200.669C274.934 200.908 274.182 201.012 273.43 200.974C273.213 200.943 273.005 200.863 272.822 200.741C272.639 200.618 272.487 200.456 272.376 200.266C272.266 200.074 272.202 199.859 272.188 199.639C272.171 199.416 272.204 199.192 272.286 198.985C271.744 199.424 271.351 200.021 271.16 200.693C270.97 201.365 270.992 202.079 271.222 202.739C271.294 202.81 271.294 202.963 271.374 203.043L271.401 203.07Z" fill="#643443"/>
<path d="M290.328 204.602C292.465 205.059 294.065 204.602 294.905 203.527C295.467 202.939 295.823 202.185 295.92 201.377C296.017 200.569 295.849 199.752 295.442 199.047C295.898 201.574 293.072 203.41 289.183 202.416C285.67 205.247 280.86 202.649 280.86 202.649C278.571 204.441 276.131 205.014 273.842 203.106C273.295 203.256 272.712 203.198 272.206 202.943C271.699 202.688 271.304 202.255 271.097 201.726C271.103 202.09 271.154 202.451 271.249 202.801C271.321 202.873 271.321 203.025 271.401 203.106C271.605 203.428 271.884 203.696 272.215 203.885C272.548 204.072 272.923 204.17 273.305 204.172C275.138 207.541 278.196 207.845 281.396 205.068C285.366 207.657 286.966 207.424 290.328 204.602Z" fill="#572A37"/>
<path d="M323.201 219.635L338.561 222.457L328.601 223.685L322.45 223.04L323.201 219.635Z" fill="#2A499A"/>
<path d="M294.297 229.624L296.371 236.541H342.861C344.16 236.483 345.409 236.031 346.445 235.243C347.48 234.456 348.25 233.371 348.655 232.133C350.675 226.838 346.795 225.862 342.611 223.855C339.929 222.757 337.126 221.984 334.261 221.552C328.253 220.11 294.297 229.624 294.297 229.624Z" fill="#F1A985"/>
<path d="M348.682 232.133C348.867 231.654 349.011 231.159 349.111 230.655C348.78 230.655 348.449 230.655 348.118 230.709C338.105 231.425 328.146 233.118 318.106 233.208C311.74 233.271 305.321 232.688 299.036 233.692C297.915 233.827 296.822 234.129 295.79 234.588L296.372 236.523H342.861C344.162 236.472 345.416 236.024 346.457 235.24C347.497 234.456 348.273 233.372 348.682 232.133Z" fill="#EB9277"/>
<path d="M298.615 236.559H269.273L269.89 235.663C270.399 234.974 271.108 234.461 271.92 234.194L280.699 232.527L294.557 226.847C294.673 226.796 294.798 226.77 294.925 226.772C295.052 226.773 295.177 226.801 295.291 226.855C295.406 226.908 295.509 226.985 295.592 227.081C295.675 227.177 295.736 227.29 295.772 227.412C296.586 229.893 298.615 236.559 298.615 236.559Z" fill="#4A2631"/>
<path d="M295.236 235.528C295.302 236.057 295.438 236.576 295.638 237.069C295.706 237.231 295.814 237.373 295.951 237.481C296.14 237.586 296.353 237.639 296.568 237.634L299.983 237.849C300.093 237.862 300.204 237.846 300.305 237.804C300.364 237.761 300.412 237.706 300.448 237.643C300.483 237.579 300.505 237.509 300.511 237.437C300.681 236.523 300.644 235.583 300.404 234.686C300.07 233.316 299.646 231.969 299.134 230.655L297.274 225.512C297.252 225.406 297.209 225.306 297.148 225.216C297.086 225.127 297.008 225.051 296.917 224.993C296.737 224.93 296.542 224.93 296.363 224.993C295.43 225.233 294.513 225.532 293.618 225.889C293.35 225.996 292.572 226.175 292.465 226.471C292.357 226.767 292.795 227.25 292.92 227.483C293.748 229.082 294.35 230.789 294.709 232.554C294.905 233.548 295.102 234.534 295.236 235.528Z" fill="#512B36"/>
<path d="M165.708 331.614H238.831C245.823 331.614 251.491 325.934 251.491 318.928V283.235C251.491 276.229 245.823 270.549 238.831 270.549H165.708C158.717 270.549 153.049 276.229 153.049 283.235V318.928C153.049 325.934 158.717 331.614 165.708 331.614Z" fill="#AC5B76"/>
<path d="M178.877 331.604V283.226C178.877 279.861 177.544 276.633 175.17 274.253C172.796 271.872 169.576 270.534 166.218 270.531H165.762C162.404 270.534 159.184 271.872 156.81 274.253C154.436 276.633 153.102 279.861 153.102 283.226V331.604" fill="#BC6D83"/>
<path d="M370.585 331.022H212.52V244.703C212.52 241.972 213.602 239.354 215.529 237.424C217.455 235.493 220.068 234.409 222.792 234.409H360.322C363.045 234.411 365.655 235.497 367.58 237.427C369.504 239.357 370.585 241.974 370.585 244.703V330.977V331.022Z" fill="#AC5B76"/>
<path d="M198.895 331.309H347.153V259.153C347.153 245.518 348.583 234.453 334.967 234.453H223.579C217.042 234.453 210.773 237.056 206.15 241.688C201.528 246.32 198.931 252.602 198.931 259.153L198.895 331.309Z" fill="#BC6D83"/>
<path d="M250.168 291.594H187.558V300.687H250.168V291.594Z" fill="#362C85"/>
<path fill-rule="evenodd" clip-rule="evenodd" d="M245.394 291.567H195.024V273.38L213.342 273.891L215.631 273.38L245.447 274.446L245.394 291.567Z" fill="#F47B67"/>
<path d="M250.159 300.687H225.644V291.594H250.964V292.427L250.159 292.749V299.307L250.838 300.176L250.964 300.687H250.159Z" fill="#4D3EBD"/>
<path fill-rule="evenodd" clip-rule="evenodd" d="M215.363 291.594H213.074H194.755V273.407L213.074 273.918L215.363 273.407V291.594Z" fill="#D96D5B"/>
<path d="M189.946 291.594H188.935V300.687H189.946V291.594Z" fill="#362C85"/>
<path d="M192.395 291.594H191.385V300.687H192.395V291.594Z" fill="#261B7D"/>
<path d="M223.195 291.594H222.185V300.687H223.195V291.594Z" fill="#261B7D"/>
<path d="M220.745 291.594H219.735V300.687H220.745V291.594Z" fill="#261B7D"/>
<path d="M195.042 273.407H193.62V276.462H195.042V273.407Z" fill="#D96D5B"/>
<path d="M195.042 288.512H193.62V291.594H195.042V288.512Z" fill="#D96D5B"/>
<path d="M213.074 276.435H194.755V288.557H213.074V276.435Z" fill="#FFEEC2"/>
<path fill-rule="evenodd" clip-rule="evenodd" d="M199.342 281.586H203.919V287.042L201.631 284.319L199.342 287.042V281.586Z" fill="#45DDC0"/>
<path d="M197.053 281.586H206.208" stroke="#E3CB8F" stroke-width="0.7" stroke-miterlimit="10"/>
<path d="M199.342 278.863H208.497" stroke="#E3CB8F" stroke-width="0.7" stroke-miterlimit="10"/>
<path d="M250.159 292.749H227.459V299.298H250.159V292.749Z" fill="#FFEEC2"/>
<path d="M236.677 293.78H247.709" stroke="#E3CB8F" stroke-width="0.7" stroke-miterlimit="10"/>
<path d="M229.319 295.159H244.035" stroke="#E3CB8F" stroke-width="0.7" stroke-miterlimit="10"/>
<path d="M239.127 297.928H246.484" stroke="#E3CB8F" stroke-width="0.7" stroke-miterlimit="10"/>
<path d="M179.602 331.604H309.201V300.624H179.602V331.604Z" fill="#9B4868"/>
<path d="M273.332 258.956L267.709 267.297C267.179 268.093 266.452 268.739 265.599 269.169L254.701 274.545V284.901C254.701 284.901 256.229 284.561 258.599 283.952C266.314 281.972 282.496 274.222 283.292 269.492C284.174 267.754 284.693 265.855 284.818 263.909C284.942 261.964 284.669 260.013 284.016 258.177C284.016 258.177 286.913 254.118 281.834 254.271C280.148 254.318 278.496 254.768 277.018 255.583C275.539 256.398 274.276 257.554 273.332 258.956Z" fill="#FFF4D7"/>
<path d="M254.674 274.5V284.857L256.945 284.319L258.464 272.672L254.674 274.5Z" fill="#FFD865"/>
<path d="M284.427 324.258C284.427 324.258 282.845 328.361 280.52 332.823C278.196 337.284 282.594 336.003 285.527 335.152C288.459 334.301 290.167 332.518 294.074 330.807C296.702 329.642 295.236 327.564 295.299 324.993L284.427 324.258Z" fill="#8D210A"/>
<path d="M266.305 317.046C266.305 317.046 264.168 320.961 261.361 325.109C258.554 329.257 263.194 328.415 266.126 327.985C269.059 327.555 271.008 325.969 275.067 324.751C277.811 323.855 276.586 321.687 276.953 319.116L266.305 317.046Z" fill="#8D210A"/>
<path d="M263.301 315.926C268.156 318.91 279.546 324.608 297.176 325.853C298.518 325.963 299.852 325.564 300.914 324.734C301.976 323.904 302.687 322.704 302.907 321.373L306.286 300.66H323.014C323.3 292.767 318.749 277.904 318.749 277.904L322.513 254.889C316.979 248.77 304.15 249.513 304.15 249.513L290.051 250.105C278.133 252.998 277.784 262.54 281.459 277.295C281.96 279.293 281.173 282.518 281.459 284.677L275.111 284.498C273.923 284.466 272.74 284.681 271.638 285.13C270.536 285.579 269.539 286.251 268.71 287.105C267.404 288.451 266.478 290.121 266.028 291.943L261.325 311.142C261.109 312.047 261.183 312.996 261.538 313.856C261.893 314.715 262.51 315.44 263.301 315.926Z" fill="#AAC8FF"/>
<path d="M285.634 252.318L285.339 258.589C285.322 258.94 285.418 259.287 285.613 259.578C285.808 259.87 286.091 260.092 286.421 260.21L286.743 260.327C287.069 260.443 287.349 260.66 287.544 260.947C287.739 261.234 287.837 261.575 287.824 261.922L287.726 265.38C287.718 265.65 287.777 265.918 287.898 266.16C288.018 266.402 288.197 266.61 288.417 266.767C288.638 266.923 288.893 267.022 289.161 267.055C289.429 267.088 289.701 267.054 289.952 266.957L290.158 266.885C290.422 266.781 290.709 266.749 290.99 266.791C291.271 266.833 291.536 266.949 291.758 267.127L294.53 269.304C294.745 269.472 294.998 269.583 295.267 269.628C295.535 269.673 295.811 269.649 296.068 269.56C296.326 269.471 296.557 269.319 296.741 269.118C296.925 268.917 297.056 268.673 297.122 268.408L297.766 266.007C297.879 265.586 298.155 265.226 298.532 265.008C298.909 264.79 299.357 264.73 299.778 264.842L302.674 265.622C302.907 265.684 303.15 265.695 303.387 265.652C303.624 265.61 303.849 265.516 304.045 265.376C304.242 265.237 304.405 265.055 304.523 264.845C304.642 264.635 304.713 264.402 304.731 264.161L304.927 261.734C304.944 261.501 305.01 261.276 305.121 261.071C305.232 260.867 305.386 260.689 305.571 260.549C305.757 260.409 305.97 260.31 306.197 260.259C306.423 260.209 306.658 260.207 306.885 260.255H306.993C307.224 260.302 307.463 260.298 307.694 260.244C307.924 260.189 308.139 260.086 308.326 259.941C308.513 259.795 308.666 259.611 308.775 259.401C308.885 259.191 308.947 258.96 308.959 258.723L309.219 253.169L285.634 252.318Z" fill="#8BA0FF"/>
<path d="M284.588 286.998C276.005 286.102 274.628 286.102 275.514 287.894C276.399 289.685 279.134 294.496 281.11 297.749C283.086 301.001 283.14 301.332 287.574 296.987C292.009 292.642 292.938 292.508 299.715 292.248C304.158 292.104 293.162 287.885 284.588 286.998Z" fill="#9FC0FF"/>
<path d="M315.03 281.604C314.279 284.642 314.44 288.189 314.136 291.307C314.056 292.266 313.895 293.359 313.081 293.869C312.468 294.169 311.773 294.257 311.105 294.12L305.741 293.627C305.027 293.509 304.297 293.539 303.595 293.717C303.058 293.916 302.566 294.221 302.147 294.613C300.015 296.596 298.411 299.081 297.48 301.843C296.452 304.53 295.808 307.397 294.968 310.166C293.439 315.156 291.24 319.976 290.167 325.064C292.375 325.396 294.7 325.665 297.158 325.835C298.5 325.945 299.835 325.546 300.896 324.716C301.958 323.886 302.669 322.687 302.889 321.355L306.269 300.642H322.996C323.246 293.824 319.885 281.828 318.964 278.666C317.274 279.006 315.379 280.207 315.03 281.604Z" fill="#95B9FF"/>
<path d="M288.647 252.568C289.881 261.975 294.905 264.905 309.21 253.231L288.647 252.568Z" fill="#3E97B2"/>
<path d="M309.657 287.625C308.441 287.499 304.534 287.32 301.78 287.258C299.027 287.195 299.527 287.741 300.886 287.867C302.245 287.992 305.285 289.211 308.271 290.071C309.255 290.313 309.8 290.743 310.166 289.829C310.757 288.288 310.882 287.732 309.657 287.625Z" fill="#9FC0FF"/>
<path d="M309.219 300.624C309.165 299.334 307.878 295.124 307.699 295.616C307.088 297.243 306.615 298.918 306.286 300.624H309.219Z" fill="#8BA0FF"/>
<path d="M274.772 310.39C276.828 317.611 278.616 316.043 279.725 315.451C281.573 314.442 283.141 312.985 284.284 311.214C285.679 308.884 286.564 308.248 284.445 309.637C282.326 311.026 279.608 312.271 278.544 309.816C277.481 307.361 273.466 299.28 270.838 292.794C269.443 289.488 272.751 303.16 274.772 310.39Z" fill="#9FC0FF"/>
<path d="M308.298 268.901C307.512 271.621 305.93 274.043 303.756 275.853C303.648 275.939 303.572 276.058 303.539 276.192C303.505 276.326 303.517 276.467 303.572 276.594C303.627 276.721 303.722 276.826 303.843 276.892C303.963 276.959 304.103 276.984 304.239 276.964C307.556 276.355 312.169 274.491 309.433 268.802C309.377 268.694 309.29 268.604 309.183 268.546C309.076 268.487 308.954 268.461 308.833 268.471C308.711 268.482 308.596 268.528 308.5 268.605C308.405 268.681 308.335 268.784 308.298 268.901Z" fill="#9FC0FF"/>
<path d="M307.726 282.33C305.938 281.004 303.989 279.848 303.256 279.383C302.522 278.917 302.174 278.8 301.646 279.723C301.119 280.646 301.181 280.619 302.54 281.846L305.705 284.874L307.726 282.33Z" fill="#28C9C7"/>
<path d="M292.831 281.282C292.736 281.115 292.629 280.957 292.509 280.807C292.662 280.69 292.803 280.558 292.93 280.413C293.689 279.562 294.011 278.46 293.636 277.967C293.26 277.474 292.348 277.761 291.588 278.612C291.491 278.719 291.402 278.833 291.32 278.953C291.239 278.801 291.15 278.654 291.052 278.514C290.417 277.662 289.541 277.385 289.094 277.886C288.647 278.388 288.799 279.463 289.416 280.314H289.371C288.531 281.049 288.093 282.106 288.397 282.653C288.701 283.199 289.639 283.074 290.48 282.339C290.576 282.259 290.665 282.172 290.748 282.079C290.823 282.33 290.922 282.573 291.043 282.805C291.562 283.755 292.384 284.185 292.885 283.754C293.385 283.324 293.314 282.249 292.831 281.282Z" fill="white"/>
<path d="M286.528 267.019C286.528 267.019 275.102 266.616 272.42 277.537L278.5 276.767L287.261 272.386L286.528 267.019Z" fill="#F7DA7E"/>
<path d="M300.386 273.855C300.386 273.855 286.287 264.591 272.912 276.05C272.912 276.05 267.548 262.154 253.699 264.349L258.563 287.499L283.855 288.96L300.386 273.855Z" fill="#F7E7B4"/>
<path fill-rule="evenodd" clip-rule="evenodd" d="M305.249 272.395L302.335 296.27L275.826 304.799L270.963 304.065L255.156 291.88L250.293 261.913L269.023 280.431L274.128 281.891L305.249 272.395Z" fill="#9C84EF"/>
<path d="M305.249 272.395L303.792 271.176L274.369 280.431L269.345 279.051L251.759 261.429L250.293 261.913L269.023 280.431L274.128 281.891L305.249 272.395Z" fill="#967CEF"/>
<path d="M274.128 281.891L275.827 304.799L270.963 304.065L269.023 280.431L274.128 281.891Z" fill="#8567EF"/>
<path d="M274.235 283.36L269.148 281.945L269.229 282.984L274.369 285.063L274.235 283.36Z" fill="#7451EF"/>
<path d="M274.369 286.406L269.39 284.883L269.586 287.32L274.593 288.171L274.369 286.406Z" fill="#7451EF"/>
<path d="M250.901 277.994C251.104 277.678 251.416 277.449 251.777 277.35C252.139 277.25 252.524 277.288 252.859 277.456L255.416 278.711C255.704 278.855 255.925 279.105 256.033 279.409C256.471 280.305 256.73 280.995 256.033 280.995L252.778 280.762C252.485 280.743 252.202 280.641 251.965 280.467C250.588 279.418 250.4 278.755 250.901 277.994Z" fill="#28C9C7"/>
<path d="M252.465 280.117L256.158 281.909C256.426 282.078 256.64 282.321 256.775 282.608C257.123 283.504 257.481 284.194 256.775 284.194L253.082 283.934C250.704 282.249 251.142 281.524 252.465 280.117Z" fill="#28C9C7"/>
<path d="M253.976 284.041L255.371 284.642C255.604 284.735 255.808 284.888 255.965 285.084C256.121 285.28 256.225 285.514 256.265 285.761C256.265 285.86 256.265 285.968 256.265 286.066C256.265 286.684 255.997 286.595 255.299 286.505L253.359 286.245C252.877 286.165 252.841 286.084 252.769 285.663C252.76 285.583 252.76 285.501 252.769 285.421V283.683L253.976 284.041Z" fill="#28C9C7"/>
<path d="M303.72 281.694C301.843 281.479 299.903 281.443 299.143 281.425C298.383 281.407 298.097 281.425 298.097 282.321C298.097 283.217 298.097 283.172 299.688 283.504L303.318 284.4L303.72 281.694Z" fill="#28C9C7"/>
<path d="M310.122 292.185C310.506 290.205 309.147 287.249 307.529 282.017L302.773 281.622L302.692 283.961L299.223 285.072C298.052 285.484 297.999 285.681 298.052 286.182C298.098 286.569 298.257 286.934 298.508 287.231C298.642 287.473 299.241 287.311 300.091 287.284L302.469 287.24C302.889 287.24 302.871 287.508 302.558 287.616C302.245 287.723 300.189 288.091 299.733 288.225C299.277 288.359 299.17 288.476 299.206 288.834C299.241 289.193 299.206 289.891 299.885 290.017C300.564 290.142 303.05 290.142 303.05 290.142C304.346 291.208 307.744 291.629 310.122 292.185Z" fill="#28C9C7"/>
<path d="M311.785 270.719L315.066 278.146L306.465 281.165L308.897 293.35C308.897 293.35 324.31 288.7 325.356 280.287C326.733 269.187 325.973 260.255 323.944 256.259C323.553 255.578 322.973 255.025 322.275 254.667C321.577 254.309 320.79 254.162 320.01 254.244C320.01 254.244 311.499 253.912 310.971 265.407C310.909 266.817 311.05 268.229 311.391 269.599C311.494 269.982 311.626 270.356 311.785 270.719Z" fill="#FFF4D7"/>
<path d="M318.722 281.201C317.292 280.001 315.575 278.299 316.291 278.263C317.371 278.406 318.44 278.621 319.491 278.908C319.679 278.952 319.847 279.059 319.965 279.212C320.081 279.367 320.144 279.556 320.144 279.75C320.135 281.64 320.135 282.402 318.722 281.201Z" fill="#FFD865"/>
<path d="M306.465 281.165L308.45 280.467L312.089 292.185C311.052 292.651 309.982 293.04 308.888 293.35L306.465 281.165Z" fill="#FFD865"/>
<path d="M299.456 224.07L298.741 218.919C298.524 217.594 297.884 216.375 296.916 215.446C295.949 214.517 294.707 213.928 293.377 213.767C292.176 213.643 290.966 213.874 289.895 214.431C288.824 214.988 287.94 215.847 287.351 216.903C285.357 220.603 282.112 226.641 279.251 232.697C274.781 242.266 274.7 249.594 290.364 254.423C306.027 259.252 322.88 260.094 322.057 247.023C321.548 238.825 320.341 228.935 319.536 222.78C319.322 221.083 318.518 219.517 317.265 218.355C316.013 217.194 314.392 216.511 312.688 216.428C311.135 216.355 309.6 216.779 308.304 217.639C307.008 218.499 306.02 219.751 305.482 221.212L303.846 225.691L299.456 224.07Z" fill="#4DE6CA"/>
<path d="M283.059 251.35C285.391 252.623 287.856 253.635 290.408 254.369C293.773 255.427 297.201 256.271 300.672 256.896C302.791 255.525 306.501 252.318 308.334 245.697C310.926 236.093 303.336 243.538 303.336 243.538L292.608 243.269L286.877 241.164L281.513 237.831L280.297 237.974C280.259 242.579 281.201 247.139 283.059 251.35Z" fill="#8FFCE5"/>
<path d="M295.352 255.794C309.424 259.261 322.826 258.696 322.084 247.023C321.574 238.825 320.367 228.935 319.563 222.78C319.348 221.083 318.544 219.517 317.292 218.355C316.04 217.194 314.419 216.511 312.714 216.428C315.397 217.082 315.602 222.233 315.271 228.307C314.941 234.382 310.801 241.531 308.682 244.917C303.148 253.634 298.535 255.982 295.352 255.794Z" fill="#4DE6CA"/>
<path d="M304.543 243.072H305.258L304.883 244.102C288.28 244.532 287.485 243.332 282.085 238.351L282.308 237.195C288.03 242.355 290.632 242.723 304.543 243.072Z" fill="#244663"/>
<path d="M308.942 246.216C310.649 244.425 311.043 241.871 309.836 240.545C308.629 239.22 306.259 239.65 304.516 241.441C302.773 243.233 302.415 245.786 303.622 247.103C304.829 248.42 307.234 248.026 308.942 246.216Z" fill="#6F8BFF"/>
<path d="M280.976 240.913C282.192 240.913 283.202 239.22 283.238 237.096C283.274 234.973 282.344 233.226 281.101 233.208C279.859 233.19 278.875 234.892 278.839 237.025C278.804 239.157 279.76 240.895 280.976 240.913Z" fill="#6F8BFF"/>
<path opacity="0.41" d="M293.117 237.706C292.375 237.956 291.722 237.777 292.295 237.276L294.253 235.645C294.396 235.541 294.567 235.481 294.744 235.475C294.922 235.472 295.096 235.522 295.245 235.618C295.603 235.878 296.032 236.299 295.638 236.675C295.021 237.293 293.85 237.455 293.117 237.706Z" fill="#1B4E7E"/>
<path opacity="0.41" d="M289.541 236.263C289.578 235.439 289.53 234.613 289.398 233.799C289.401 233.768 289.395 233.736 289.381 233.707C289.367 233.679 289.346 233.654 289.319 233.638C289.292 233.621 289.26 233.612 289.229 233.612C289.197 233.612 289.166 233.621 289.139 233.638L288.879 233.808C288.703 233.919 288.566 234.082 288.486 234.274C288.408 234.464 288.386 234.672 288.423 234.874C288.468 235.276 288.54 235.674 288.638 236.066C288.888 236.998 289.425 237.132 289.541 236.263Z" fill="#1B4E7E"/>
<path d="M294.95 221.113C295.272 217.189 295.057 213.857 292.223 213.794H293.403C294.733 213.955 295.976 214.544 296.943 215.473C297.91 216.402 298.551 217.62 298.767 218.945L299.483 224.097L303.899 225.718L298.088 224.885C294.431 224.312 294.753 223.255 294.95 221.113Z" fill="#28C9C7"/>
<path d="M311.248 216.535C309.961 216.729 308.75 217.265 307.74 218.087C306.731 218.91 305.96 219.989 305.509 221.212L303.872 225.691L302.192 226.901C300.976 227.752 299.849 228.514 302.236 228.021C304.623 227.528 304.919 227.367 305.115 226.731L306.751 222.251C307.261 220.872 308.629 217.467 311.221 216.535H311.248Z" fill="#4DE6CA"/>
<path d="M312.697 232.447C309.272 234.507 309.237 231.497 310.497 230.072C311.823 228.478 313.72 227.468 315.781 227.259C318.472 226.874 316.121 230.377 312.697 232.447Z" fill="#DBD2FF"/>
<path d="M285.929 223.729C286.198 222.458 286.143 221.139 285.768 219.895C284.928 221.481 284.034 223.237 283.032 225.082C284.052 226.56 285.652 225.199 285.929 223.729Z" fill="#DBD2FF"/>
<path d="M317.453 234.767C316.201 233.755 314.851 233.54 312.089 234.086C309.326 234.633 308.745 235.412 310.122 236.084C311.499 236.756 312.572 237.034 316.201 236.541C317.453 236.272 318.731 235.752 317.453 234.767Z" fill="#DBD2FF"/>
<path d="M282.13 226.838L281.235 228.782C282.353 229.257 282.737 228.558 282.13 226.838Z" fill="#DBD2FF"/>
<path d="M307.663 244.254C308.673 243.072 308.933 241.638 308.235 241.038C307.538 240.438 306.17 240.922 305.16 242.104C304.15 243.287 303.89 244.72 304.588 245.312C305.285 245.903 306.653 245.437 307.663 244.254Z" fill="#B5A2FF"/>
<path d="M279.805 237.195C280.27 237.302 280.815 236.613 281.03 235.654C281.244 234.695 281.03 233.862 280.583 233.737C280.136 233.611 279.573 234.319 279.358 235.278C279.144 236.236 279.349 237.096 279.805 237.195Z" fill="#B5A2FF"/>
<path d="M291.71 221.569C292.063 219.909 291.542 218.391 290.547 218.179C289.552 217.967 288.46 219.141 288.107 220.801C287.755 222.461 288.276 223.978 289.271 224.19C290.266 224.402 291.358 223.229 291.71 221.569Z" fill="#1B354C"/>
<path d="M310.465 224.868C310.817 223.208 310.296 221.691 309.301 221.479C308.306 221.267 307.214 222.44 306.862 224.1C306.509 225.76 307.03 227.278 308.025 227.49C309.02 227.702 310.112 226.528 310.465 224.868Z" fill="#1B354C"/>
<path d="M318.365 331.614H379.025C386.017 331.614 391.684 325.934 391.684 318.928V283.235C391.684 276.229 386.017 270.549 379.025 270.549H318.365C311.373 270.549 305.705 276.229 305.705 283.235V318.928C305.705 325.934 311.373 331.614 318.365 331.614Z" fill="#9B4868"/>
<path d="M331.489 331.604V283.226C331.489 279.861 330.156 276.633 327.782 274.253C325.408 271.872 322.188 270.534 318.83 270.531H318.347C314.987 270.531 311.765 271.869 309.389 274.249C307.013 276.63 305.678 279.859 305.678 283.226V331.604" fill="#BC6D83"/>
<line x1="86.902" y1="73.8595" x2="400.466" y2="73.8595" stroke="#33323E"/>
<path d="M119.444 36.4992C117.929 31.5416 122.481 23.4711 119.444 19.3689C116.408 15.2667 107.303 17.0414 103.186 14.0797C99.069 11.1179 97.838 1.57523 93.0882 0.254383C92.6946 0.145788 92.2886 0.0890638 91.8804 0.0856418H84.9705L84.9356 1.74398H86.4337C83.1936 3.34994 79.849 5.5436 76.8064 5.5436C71.9462 5.5436 66.4183 -0.333308 61.7092 0.0158155H54.7935L55.0606 2.3433H57.691C54.9502 5.66579 53.6263 11.6533 50.4037 14.0971C46.2461 17.2683 36.9381 15.482 34.0348 19.3863C31.1315 23.2907 35.62 31.8209 34.0348 36.5166C32.4496 41.2123 24.0009 45.1167 24.0009 50.3419C24.0009 55.5671 32.647 59.2038 34.1683 64.1672C35.6897 69.1306 31.1315 77.1953 34.1683 81.2975C37.2052 85.3997 46.31 83.625 50.4269 86.5867C53.7425 89.0248 55.2348 95.7803 58.2252 98.9166H54.7412V100.569H61.8427C66.4067 100.616 72.0507 95.1053 76.8702 95.1053C82.1543 95.1053 88.228 102.047 93.1752 100.395C98.1225 98.742 99.249 89.5484 103.343 86.5693C107.436 83.5901 116.698 85.1844 119.601 81.2801C122.505 77.3757 118.016 68.8454 119.601 64.1497C121.186 59.454 129.635 55.5497 129.635 50.3245C129.635 45.0993 120.966 41.4626 119.444 36.4992Z" fill="#6179CD"/>
<path d="M122.644 50.3244C122.644 55.5612 114.195 59.454 112.61 64.1497C111.025 68.8454 115.513 77.3756 112.61 81.28C109.707 85.1843 100.468 83.6075 96.3516 86.5692C92.2347 89.5309 91.1256 98.742 86.1842 100.394C81.2427 102.047 75.1516 95.1052 69.8792 95.1052C64.6068 95.1052 58.3298 101.721 53.58 100.394C48.8302 99.0678 47.5063 89.5484 43.4126 86.5692C39.3189 83.59 30.2083 85.4054 27.154 81.28C24.0998 77.1545 28.6696 69.1072 27.154 64.1497C25.6385 59.1921 16.9867 55.5496 16.9867 50.3244C16.9867 45.0992 25.4353 41.1948 27.0205 36.4991C28.6057 31.8034 24.1172 23.2732 27.0205 19.3688C29.9238 15.4644 39.2144 17.2508 43.3894 14.0796C47.5643 10.9084 48.5398 1.90683 53.4871 0.254312C58.4343 -1.3982 64.5197 5.54353 69.7921 5.54353C75.0645 5.54353 81.3414 -1.07236 86.0971 0.254312C90.8527 1.58098 92.1011 11.1004 96.1948 14.0796C100.288 17.0588 109.399 15.2433 112.453 19.3688C115.508 23.4943 110.938 31.5416 112.453 36.4991C113.969 41.4567 122.644 45.0992 122.644 50.3244Z" fill="#7289DA"/>
<path d="M106.194 76.3632L105.689 77.6841C105.686 77.6892 105.685 77.695 105.686 77.7006C105.686 77.7063 105.689 77.7117 105.693 77.716C105.696 77.7204 105.701 77.7235 105.707 77.7251C105.712 77.7267 105.718 77.7266 105.723 77.7248L107.042 77.2186L108.36 77.7248C108.365 77.7266 108.371 77.7267 108.376 77.7251C108.382 77.7235 108.387 77.7204 108.391 77.716C108.394 77.7117 108.397 77.7063 108.397 77.7006C108.398 77.695 108.397 77.6892 108.394 77.6841L107.889 76.3632L108.394 75.0424C108.397 75.0372 108.398 75.0315 108.397 75.0258C108.397 75.0201 108.394 75.0148 108.391 75.0104C108.387 75.0061 108.382 75.0029 108.376 75.0013C108.371 74.9998 108.365 74.9999 108.36 75.0016L107.042 75.5137L105.723 75.0016C105.718 74.9999 105.712 74.9998 105.707 75.0013C105.701 75.0029 105.696 75.0061 105.693 75.0104C105.689 75.0148 105.686 75.0201 105.686 75.0258C105.685 75.0315 105.686 75.0372 105.689 75.0424L106.194 76.3632Z" fill="#6179CD"/>
<path d="M85.8928 40.0757L77.1806 45.7505C76.3094 46.6235 75.0026 46.187 74.567 45.7505C73.6957 44.8774 72.3889 44.4409 71.5177 44.0044C69.3396 43.5679 67.1616 44.0044 65.4191 44.8774L62.3698 47.06L46.2522 57.5365C42.7673 59.7191 38.4112 58.846 36.2332 55.3539C34.0551 51.8617 34.9263 47.4966 38.4112 45.314L57.1425 32.6549C62.3698 29.5993 68.4684 28.2897 74.1313 29.5993C78.9231 30.4723 83.2792 33.0914 86.3285 37.0201C87.1997 37.8931 87.1997 39.6392 85.8928 40.0757Z" fill="white"/>
<path d="M104.624 48.8061C104.624 51.4252 103.317 53.6078 101.139 54.9173L81.9722 67.5764C78.4873 69.759 74.1312 71.0685 70.2107 71.0685C68.4682 71.0685 66.7258 71.0685 65.4189 70.632C60.6272 69.759 56.7067 66.7034 53.2218 63.2112C52.3506 62.3382 52.3506 60.5921 53.6574 60.1556L62.3696 54.4808C63.2409 53.6078 64.5477 54.0443 64.9833 54.4808C65.8545 55.3539 66.7258 55.7904 68.0326 56.2269C70.2107 56.6634 72.3887 56.2269 74.1312 55.3539L78.4873 52.7348L91.5556 44.0044L93.298 42.6948C96.7829 40.5122 101.139 41.3853 103.317 44.8774C104.188 46.187 104.624 47.4965 104.624 48.8061Z" fill="white"/>
<path d="M112.477 19.3688C109.446 15.2666 100.335 17.0413 96.2181 14.0796C93.4367 12.0547 91.9676 7.00987 89.8308 3.56519L31.0852 83.6133C35.0802 84.777 40.5268 84.457 43.4359 86.5692C47.5296 89.5484 48.8477 99.0736 53.6033 100.394C54.1974 100.552 54.8143 100.605 55.4266 100.552L113.388 21.5683C113.255 20.7752 112.943 20.023 112.477 19.3688Z" fill="white" fill-opacity="0.09"/>
<path d="M112.477 36.4992C112.213 35.5414 112.111 34.5464 112.175 33.5549L66.4417 95.856C67.5475 95.3947 68.7283 95.1402 69.9256 95.1053C72.7651 95.1053 75.8252 97.107 78.8214 98.7013L118.753 43.8773C116.228 41.4975 113.301 39.1933 112.477 36.4992Z" fill="white" fill-opacity="0.1"/>
<circle cx="180.971" cy="95.861" r="11.6467" fill="#C4C4C4" fill-opacity="0.04"/>
<circle cx="180.971" cy="130.801" r="11.6467" fill="#C4C4C4" fill-opacity="0.04"/>
<circle cx="180.971" cy="165.741" r="11.6467" fill="#C4C4C4" fill-opacity="0.04"/>
<circle cx="180.971" cy="200.681" r="11.6467" fill="#C4C4C4" fill-opacity="0.04"/>
<defs>
<linearGradient id="paint0_linear" x1="33.4434" y1="184.248" x2="38.9826" y2="231.486" gradientUnits="userSpaceOnUse">
<stop offset="0.22" stop-color="#F99300"/>
<stop offset="1" stop-color="#ED8000"/>
</linearGradient>
<linearGradient id="paint1_linear" x1="281.227" y1="156.439" x2="294.793" y2="191.324" gradientUnits="userSpaceOnUse">
<stop stop-color="#F5C38D"/>
<stop offset="1" stop-color="#CF8F71"/>
</linearGradient>
<linearGradient id="paint2_linear" x1="326.089" y1="176.937" x2="251.375" y2="176.937" gradientUnits="userSpaceOnUse">
<stop stop-color="#C97A6D"/>
<stop offset="1" stop-color="#D89F83"/>
</linearGradient>
</defs>
</svg>